<svg xmlns="http://www.w3.org/2000/svg" xmlns:xlink="http://www.w3.org/1999/xlink" version="1.1" width="580pt" height="117pt" viewBox="0 0 580 117">
<defs>
<clipPath id="clip_0">
<path d="M0 0H580V117H0Z" fill-rule="evenodd"/>
</clipPath>
</defs>
<g clip-path="url(#clip_0)">
<path transform="matrix(.25,0,0,.25,0,0)" stroke-width="4" stroke-linecap="round" stroke-linejoin="round" fill="none" stroke="#000000" d="M340.2 79.50018C351.13526 79.50018 360 88.36496 360 99.30017V158.7002C360 169.6354 351.13526 178.50019 340.2 178.50019H59.799989C48.864748 178.50019 40 169.6354 40 158.7002V99.30017C40 88.36496 48.864748 79.50018 59.799989 79.50018H340.2Z"/>
<text xml:space="preserve" transform="matrix(.25 0 0 .25 30 27.125046)" font-size="30" font-family="Roboto"><tspan y="32" x="1 21 38 54 67.38281 84.38281 101.38281 108.38281 131.38282 145.38282">&#x0421;&#x0432;&#x044f;&#x0442;&#x043e;&#x0439; &#x0414;&#x0443;&#x0445;</tspan></text>
<path transform="matrix(.25,0,0,.25,0,0)" stroke-width="4" stroke-linecap="round" stroke-linejoin="round" fill="none" stroke="#000000" d="M980.2 79.50015C991.13528 79.50015 1000 88.3649 1000 99.30014V158.70017C1000 169.6354 991.13528 178.50016 980.2 178.50016H699.8C688.86477 178.50016 680 169.6354 680 158.70017V99.30014C680 88.3649 688.86477 79.50015 699.8 79.50015H980.2Z"/>
<text xml:space="preserve" transform="matrix(.25 0 0 .25 188.625 27.125039)" font-size="30" font-family="Roboto"><tspan y="32" x="0 23 39 56 72 79 105 121 138 155">&#x0414;&#x0435;&#x0432;&#x0430; &#x041c;&#x0430;&#x0440;&#x0438;&#x044f;</tspan></text>
<path transform="matrix(.25,0,0,.25,0,0)" stroke-width="4" stroke-linecap="round" stroke-linejoin="round" fill="none" stroke="#000000" d="M360 129.00016H680"/>
<path transform="matrix(.25,0,0,.25,0,0)" stroke-width="4" stroke-linecap="round" stroke-linejoin="round" fill="none" stroke="#000000" d="M519.9999 329.00016 520.0001 129.00016"/>
<path transform="matrix(.25,0,0,.25,0,0)" stroke-width="4" stroke-linecap="round" stroke-linejoin="round" fill="none" stroke="#000000" d="M660.2 329.00016C671.13528 329.00016 680 337.8649 680 348.80015V408.20018C680 419.1354 671.13528 428.00016 660.2 428.00016H379.8C368.86476 428.00016 360 419.1354 360 408.20018V348.80015C360 337.8649 368.86476 329.00016 379.8 329.00016H660.2Z"/>
<text xml:space="preserve" transform="matrix(.25 0 0 .25 104.125 89.50004)" font-size="30" font-family="Roboto"><tspan y="32" x="0 21 38 54 67.80859 83.80859 90.80859 109.80859 126.80859 143.8086 159.8086 173.1914 190.1914">&#x0418;&#x0438;&#x0441;&#x0443;&#x0441; &#x0425;&#x0440;&#x0438;&#x0441;&#x0442;&#x043e;&#x0441;</tspan></text>
<path transform="matrix(.25,0,0,.25,0,0)" stroke-width="4" stroke-linecap="round" stroke-linejoin="round" fill="none" stroke="#000000" d="M1620.2 79.50015C1631.1353 79.50015 1640 88.3649 1640 99.30014V158.70017C1640 169.6354 1631.1353 178.50016 1620.2 178.50016H1339.8C1328.8648 178.50016 1320 169.6354 1320 158.70017V99.30014C1320 88.3649 1328.8648 79.50015 1339.8 79.50015H1620.2Z"/>
<text xml:space="preserve" transform="matrix(.25 0 0 .25 340.625 27.125039)" font-size="30" font-family="Roboto"><tspan y="32" x="0 21 38 54 71 93 100 121 137.75 154.58594 168.58594 184.58594 201.58594 218.58594">&#x0418;&#x043e;&#x0441;&#x0438;&#x0444; &#x041e;&#x0431;&#x0440;&#x0443;&#x0447;&#x043d;&#x0438;&#x043a;</tspan></text>
<path transform="matrix(.25,0,0,.25,0,0)" stroke-width="4" stroke-linecap="round" stroke-linejoin="round" fill="none" stroke="#ff0000" d="M2260.2 79.50015C2271.1353 79.50015 2280 88.3649 2280 99.30014V158.70017C2280 169.6354 2271.1353 178.50016 2260.2 178.50016H1979.8C1968.8648 178.50016 1960 169.6354 1960 158.70017V99.30014C1960 88.3649 1968.8648 79.50015 1979.8 79.50015H2260.2Z"/>
<text xml:space="preserve" transform="matrix(.25 0 0 .25 504.125 27.125039)" font-size="30" font-family="Roboto"><tspan y="32" x="0 21 38 55 79 96 112 128 135 157.70703 173.70703 190.70703">&#x041f;&#x0440;&#x043e;&#x0448;&#x043b;&#x0430;&#x044f; &#x0436;&#x0435;&#x043d;&#x0430;</tspan></text>
<path transform="matrix(.25,0,0,.25,0,0)" stroke-width="4" stroke-linecap="round" stroke-linejoin="round" fill="none" stroke="#000000" d="M1640 129.00016H1960"/>
<path transform="matrix(.25,0,0,.25,0,0)" stroke-width="4" stroke-linecap="round" stroke-linejoin="round" fill="none" stroke="#000000" d="M1799.9999 329.00016 1800.0001 129.00016"/>
<path transform="matrix(.25,0,0,.25,0,0)" stroke-width="4" stroke-linecap="round" stroke-linejoin="round" fill="none" stroke="#000000" d="M1940.2 329.00016C1951.1353 329.00016 1960 337.8649 1960 348.80015V408.20018C1960 419.1354 1951.1353 428.00016 1940.2 428.00016H1659.8C1648.8648 428.00016 1640 419.1354 1640 408.20018V348.80015C1640 337.8649 1648.8648 329.00016 1659.8 329.00016H1940.2Z"/>
<text xml:space="preserve" transform="matrix(.25 0 0 .25 420.25 85.12504)" font-size="30" font-family="Roboto"><tspan y="32" x="4 23 40 55.765626 69.765628 85.765628 101.765628 108.765628 125.765628 132.76563 148.76563 164.76563 180.76563 194.76563 211.76563">&#x0411;&#x0440;&#x0430;&#x0442;&#x044c;&#x044f; &#x0438; &#x0441;&#x0451;&#x0441;&#x0442;&#x0440;&#x044b;</tspan></text>
<text xml:space="preserve" transform="matrix(.25 0 0 .25 420.25 85.12504)" font-size="30" font-family="Roboto"><tspan y="67" x="17 38 55 71 84.80859 100.80859 116.80859 123.80859 142.8086 159.8086 176.8086 192.8086 206.57422">&#x0418;&#x0438;&#x0441;&#x0443;&#x0441;&#x0430; &#x0425;&#x0440;&#x0438;&#x0441;&#x0442;&#x0430;</tspan></text>
<path transform="matrix(.25,0,0,.25,0,0)" d="M1000 127.00006H1008V131.00006H1000M1016 127.00008V131.00008M1016 127.00008 1024 127.00009V131.00009L1016 131.00008M1032 127.00009V131.00009M1032 127.00009H1040V131.00009H1032M1048 127.00011V131.0001M1048 127.00011 1056 127.00012V131.00012L1048 131.0001M1064 127.00012V131.00012M1064 127.00012H1072V131.00012H1064M1080 127.00014V131.00014M1080 127.00014 1088 127.00015V131.00016L1080 131.00014M1096 127.00015V131.00016M1096 127.00015H1104V131.00016H1096M1112 127.00017V131.00017M1112 127.00017 1120 127.00018V131.00019L1112 131.00017M1128 127.00018V131.00019M1128 127.00018H1136V131.00019H1128M1144 127.0002V131.0002M1144 127.0002 1152 127.00021V131.00022L1144 131.0002M1160 127.00021V131.00022M1160 127.00021H1168V131.00022H1160M1176 127.00023V131.00023M1176 127.00023 1184 127.000247V131.00025L1176 131.00023M1192 127.000247V131.00025M1192 127.000247H1200V131.00025H1192M1208 127.00026V131.00026M1208 127.00026 1216 127.000278V131.00028L1208 131.00026M1224 127.000278V131.00028M1224 127.000278H1232V131.00028H1224M1240 127.00029V131.00029M1240 127.00029 1248 127.000308V131.0003L1240 131.00029M1256 127.000308V131.0003M1256 127.000308H1264V131.0003H1256M1272 127.00032V131.00032M1272 127.00032 1280 127.000339V131.00034L1272 131.00032M1288 127.000339V131.00034M1288 127.000339H1296V131.00034H1288M1304 127.00035V131.00035M1304 127.00035 1312 127.00037V131.00037L1304 131.00035"/>
</g>
</svg>
