<?xml version="1.0" standalone="no"?>
<!DOCTYPE svg PUBLIC "-//W3C//DTD SVG 1.1//EN"
	"http://www.w3.org/Graphics/SVG/1.1/DTD/svg11.dtd">

<svg  width="520.5" height="90.5" viewBox="0 0 520.5 90.5" xmlns="http://www.w3.org/2000/svg" xmlns:xlink="http://www.w3.org/1999/xlink"  version="1.1">
  <desc>Lekh Diagram</desc>
  <path  stroke-linecap="round"  stroke-width="2" stroke="rgb(0, 0, 0)" fill="none" d=" M 170.1,20.5  C 175.568,20.5 180,24.9324 180,30.4  L 180,60.1  C 180,65.5676 175.568,70 170.1,70  L 29.9,70  C 24.4324,70 20,65.5676 20,60.1  L 20,30.4  C 20,24.9324 24.4324,20.5 29.9,20.5  L 170.1,20.5  Z "/>
  <text  x="100" y="45.25" style="font-size:15;  fill:rgb(0, 0, 0);  dominant-baseline: central; text-anchor: middle;">Иосиф Обручник</text>
  <path  stroke-linecap="round"  stroke-width="2" stroke="rgb(0, 0, 0)" fill="none" d=" M 490.1,20.5  C 495.568,20.5 500,24.9324 500,30.4  L 500,60.1  C 500,65.5676 495.568,70 490.1,70  L 349.9,70  C 344.432,70 340,65.5676 340,60.1  L 340,30.4  C 340,24.9324 344.432,20.5 349.9,20.5  L 490.1,20.5  Z "/>
  <text  x="420" y="45.25" style="font-size:15;  fill:rgb(0, 0, 0);  dominant-baseline: central; text-anchor: middle;">Прошлая жена</text>
  <path  stroke-linecap="round"  stroke-width="2" stroke="rgb(0, 0, 0)" fill="none" d=" M 180,45.25  L 340,45.25 "/>
</svg>
