<?xml version="1.0" standalone="no"?>
<!DOCTYPE svg PUBLIC "-//W3C//DTD SVG 1.1//EN"
	"http://www.w3.org/Graphics/SVG/1.1/DTD/svg11.dtd">

<svg  width="520.5" height="215.25" viewBox="0 0 520.5 215.25" xmlns="http://www.w3.org/2000/svg" xmlns:xlink="http://www.w3.org/1999/xlink"  version="1.1">
  <desc>Lekh Diagram</desc>
  <path  stroke-linecap="round"  stroke-width="2" stroke="rgb(0, 0, 0)" fill="none" d=" M 490.6,20.5  C 496.068,20.5 500.5,24.9324 500.5,30.4  L 500.5,60.1  C 500.5,65.5676 496.068,70 490.6,70  L 350.4,70  C 344.932,70 340.5,65.5676 340.5,60.1  L 340.5,30.4  C 340.5,24.9324 344.932,20.5 350.4,20.5  L 490.6,20.5  Z "/>
  <text  x="420.5" y="45.25" style="font-size:15;  fill:rgb(0, 0, 0);  stroke:rgb(0, 0, 0);  dominant-baseline: central; text-anchor: middle;">Иосиф Обручник</text>
  <path  stroke-linecap="round"  stroke-width="2" stroke="rgb(0, 0, 0)" fill="none" fill-opacity="0" d=" M 170.6,20.5  C 176.068,20.5 180.5,24.9324 180.5,30.4  L 180.5,60.1  C 180.5,65.5676 176.068,70 170.6,70  L 30.4,70  C 24.9324,70 20.5,65.5676 20.5,60.1  L 20.5,30.4  C 20.5,24.9324 24.9324,20.5 30.4,20.5  L 170.6,20.5  Z "/>
  <text  x="100.5" y="45.25" style="font-size:15;  fill:rgb(0, 0, 0);  stroke:rgb(0, 0, 0);  dominant-baseline: central; text-anchor: middle;">Дева Мария</text>
  <path  stroke-linecap="round"  stroke-width="2" stroke="rgb(0, 0, 0)" fill="none" d=" M 180.5,45.25  L 340.5,45.25 "/>
  <path  stroke-linecap="round"  stroke-width="2" stroke="rgb(0, 0, 0)" fill="none" d=" M 260.5,145.25  L 260.5,45.25 "/>
  <path  stroke-linecap="round"  stroke-width="2" stroke="rgb(0, 0, 0)" fill="none" d=" M 330.6,145.25  C 336.068,145.25 340.5,149.682 340.5,155.15  L 340.5,184.85  C 340.5,190.318 336.068,194.75 330.6,194.75  L 190.4,194.75  C 184.932,194.75 180.5,190.318 180.5,184.85  L 180.5,155.15  C 180.5,149.682 184.932,145.25 190.4,145.25  L 330.6,145.25  Z "/>
  <text  x="260.5" y="170" style="font-size:15;  fill:rgb(0, 0, 0);  stroke:rgb(0, 0, 0);  dominant-baseline: central; text-anchor: middle;">
    <tspan  x="260.5" dy="-7.5">Братья и сёстры</tspan>
    <tspan  x="260.5" dy="15"> Иисуса Христа</tspan>
  </text>
</svg>