<?xml version="1.0" standalone="no"?>
<!DOCTYPE svg PUBLIC "-//W3C//DTD SVG 1.1//EN"
	"http://www.w3.org/Graphics/SVG/1.1/DTD/svg11.dtd">

<svg  width="1160.5" height="234.5" viewBox="0 0 1160.5 234.5" xmlns="http://www.w3.org/2000/svg" xmlns:xlink="http://www.w3.org/1999/xlink"  version="1.1">
  <desc>Lekh Diagram</desc>
  <path  stroke-linecap="round"  stroke-width="2" stroke="rgb(0, 0, 0)" fill="none" d=" M 170.1,39.7501  C 175.568,39.7501 180,44.1824 180,49.6501  L 180,79.3501  C 180,84.8177 175.568,89.2501 170.1,89.2501  L 29.9,89.2501  C 24.4324,89.2501 20,84.8177 20,79.3501  L 20,49.6501  C 20,44.1824 24.4324,39.7501 29.9,39.7501  L 170.1,39.7501  Z "/>
  <text  x="100" y="64.5001" style="font-size:15;  fill:rgb(0, 0, 0);  stroke:rgb(0, 0, 0);  dominant-baseline: central; text-anchor: middle;">Святой Дух</text>
  <path  stroke-linecap="round"  stroke-width="2" stroke="rgb(0, 0, 0)" fill="none" fill-opacity="0" d=" M 490.1,39.7501  C 495.568,39.7501 500,44.1824 500,49.6501  L 500,79.3501  C 500,84.8177 495.568,89.2501 490.1,89.2501  L 349.9,89.2501  C 344.432,89.2501 340,84.8177 340,79.3501  L 340,49.6501  C 340,44.1824 344.432,39.7501 349.9,39.7501  L 490.1,39.7501  Z "/>
  <text  x="420" y="64.5001" style="font-size:15;  fill:rgb(0, 0, 0);  stroke:rgb(0, 0, 0);  dominant-baseline: central; text-anchor: middle;">Дева Мария</text>
  <path  stroke-linecap="round"  stroke-width="2" stroke="rgb(0, 0, 0)" fill="none" d=" M 180,64.5001  L 340,64.5001 "/>
  <path  stroke-linecap="round"  stroke-width="2" stroke="rgb(0, 0, 0)" fill="none" d=" M 260,164.5  L 260,64.5001 "/>
  <path  stroke-linecap="round"  stroke-width="2" stroke="rgb(0, 0, 0)" fill="none" d=" M 330.1,164.5  C 335.568,164.5 340,168.932 340,174.4  L 340,204.1  C 340,209.568 335.568,214 330.1,214  L 189.9,214  C 184.432,214 180,209.568 180,204.1  L 180,174.4  C 180,168.932 184.432,164.5 189.9,164.5  L 330.1,164.5  Z "/>
  <text  x="260" y="189.25" style="font-size:15;  fill:rgb(0, 0, 0);  stroke:rgb(0, 0, 0);  dominant-baseline: central; text-anchor: middle;">Иисус Христос</text>
  <path  stroke-linecap="round"  stroke-width="2" stroke="rgb(0, 0, 0)" fill="none" fill-opacity="0" d=" M 810.1,39.7501  C 815.568,39.7501 820,44.1824 820,49.6501  L 820,79.3501  C 820,84.8177 815.568,89.2501 810.1,89.2501  L 669.9,89.2501  C 664.432,89.2501 660,84.8177 660,79.3501  L 660,49.6501  C 660,44.1824 664.432,39.7501 669.9,39.7501  L 810.1,39.7501  Z "/>
  <text  x="740" y="64.5001" style="font-size:15;  fill:rgb(0, 0, 0);  stroke:rgb(0, 0, 0);  dominant-baseline: central; text-anchor: middle;">Иосиф Обручник</text>
  <path  stroke-linecap="round"  stroke-width="2" stroke="rgb(255, 0, 0)" fill="none" fill-opacity="0" d=" M 1130.1,39.7501  C 1135.57,39.7501 1140,44.1824 1140,49.6501  L 1140,79.3501  C 1140,84.8177 1135.57,89.2501 1130.1,89.2501  L 989.9,89.2501  C 984.432,89.2501 980,84.8177 980,79.3501  L 980,49.6501  C 980,44.1824 984.432,39.7501 989.9,39.7501  L 1130.1,39.7501  Z "/>
  <text  x="1060" y="64.5001" style="font-size:15;  fill:rgb(0, 0, 0);  stroke:rgb(0, 0, 0);  dominant-baseline: central; text-anchor: middle;">Прошлая жена</text>
  <path  stroke-linecap="round"  stroke-width="2" stroke="rgb(0, 0, 0)" fill="none" d=" M 820,64.5001  L 980,64.5001 "/>
  <path  stroke-linecap="round"  stroke-width="2" stroke="rgb(0, 0, 0)" fill="none" d=" M 900,164.5  L 900,64.5001 "/>
  <path  stroke-linecap="round"  stroke-width="2" stroke="rgb(0, 0, 0)" fill="none" d=" M 970.1,164.5  C 975.568,164.5 980,168.932 980,174.4  L 980,204.1  C 980,209.568 975.568,214 970.1,214  L 829.9,214  C 824.432,214 820,209.568 820,204.1  L 820,174.4  C 820,168.932 824.432,164.5 829.9,164.5  L 970.1,164.5  Z "/>
  <text  x="900" y="189.25" style="font-size:15;  fill:rgb(0, 0, 0);  stroke:rgb(0, 0, 0);  dominant-baseline: central; text-anchor: middle;">
    <tspan  x="900" dy="-7.5">Братья и сёстры</tspan>
    <tspan  x="900" dy="15"> Иисуса Христа</tspan>
  </text>
  <path  stroke-dasharray="4, 4"  stroke-linecap="round"  stroke-width="2" stroke="rgb(0, 0, 0)" fill="none" d=" M 500,64.5  L 660,64.5002 "/>
</svg>