<svg xmlns="http://www.w3.org/2000/svg" xmlns:xlink="http://www.w3.org/1999/xlink" version="1.1" width="666pt" height="293pt" viewBox="0 0 666 293">
<defs>
<clipPath id="clip_0">
<path d="M0 0H666V293H0Z" fill-rule="evenodd"/>
</clipPath>
</defs>
<g clip-path="url(#clip_0)">
<path transform="matrix(.25,0,0,.25,0,0)" stroke-width="4" stroke-linecap="round" stroke-linejoin="round" fill="none" stroke="#000000" d="M346.06098 510.7978H615.535"/>
<path transform="matrix(.25,0,0,.25,0,0)" stroke-width="4" stroke-linecap="round" stroke-linejoin="round" fill="none" stroke="#000000" d="M595.535 494.7978 615.535 510.7978 595.535 526.7978"/>
<path transform="matrix(.25,0,0,.25,0,0)" stroke-width="4" stroke-linecap="round" stroke-linejoin="round" fill="none" stroke="#000000" d="M41 431.2398V590.3558H341.552V431.2398H41"/>
<text xml:space="preserve" transform="matrix(.25 0 0 .25 17.444005 118.19945)" font-size="30" font-family="Roboto"><tspan y="32" x="5 28 45 62 78 91.38281 108.38281 125.38281 142.38282 158.38282 174.38282 190.38282 206.38282 222.38282">&#x0414;&#x043e;&#x0438;&#x0441;&#x0442;&#x043e;&#x0440;&#x0438;&#x0447;&#x0435;&#x0441;&#x043a;&#x0430;&#x044f;</tspan></text>
<text xml:space="preserve" transform="matrix(.25 0 0 .25 17.444005 118.19945)" font-size="30" font-family="Roboto"><tspan y="67" x="57 74 90 106 123 140 156 170">&#x0432;&#x0435;&#x0447;&#x043d;&#x043e;&#x0441;&#x0442;&#x044c;</tspan></text>
<path transform="matrix(.25,0,0,.25,0,0)" stroke-width="4" stroke-linecap="round" stroke-linejoin="round" fill="none" stroke="#000000" d="M615.534 431.2398V590.3558H916.086V431.2398H615.534"/>
<text xml:space="preserve" transform="matrix(.25 0 0 .25 174.9525 113.82445)" font-size="30" font-family="Roboto"><tspan y="32" x="5 24 41 57 79 95 112">&#x0412;&#x0440;&#x0435;&#x043c;&#x0435;&#x043d;&#x0430;</tspan></text>
<text xml:space="preserve" transform="matrix(.25 0 0 .25 174.9525 113.82445)" font-size="30" font-family="Roboto"><tspan y="67" x="11 30 45.835939 59.835939 74.54297 91.54297 104.25">&#x0412;&#x0435;&#x0442;&#x0445;&#x043e;&#x0433;&#x043e;</tspan></text>
<text xml:space="preserve" transform="matrix(.25 0 0 .25 174.9525 113.82445)" font-size="30" font-family="Roboto"><tspan y="102" x="18 36 52 69 84.83594 98.60156">&#x0417;&#x0430;&#x0432;&#x0435;&#x0442;&#x0430;</tspan></text>
<path transform="matrix(.25,0,0,.25,0,0)" stroke-width="4" stroke-linecap="round" stroke-linejoin="round" fill="none" stroke="#000000" d="M916.08706 510.7978H1185.5612"/>
<path transform="matrix(.25,0,0,.25,0,0)" stroke-width="4" stroke-linecap="round" stroke-linejoin="round" fill="none" stroke="#000000" d="M1165.5612 494.7978 1185.5612 510.7978 1165.5612 526.7978"/>
<path transform="matrix(.25,0,0,.25,0,0)" stroke-width="4" stroke-linecap="round" stroke-linejoin="round" fill="none" stroke="#000000" d="M1185.562 431.2398V590.3558H1486.114V431.2398H1185.562"/>
<text xml:space="preserve" transform="matrix(.25 0 0 .25 307.9595 118.19945)" font-size="30" font-family="Roboto"><tspan y="32" x="5 21.078125 44.078126 60.078126 76.078128 92.078128 108.078128 125.078128 140.91407 154.91407 171.91407 187.91407">&#x0422;&#x044b;&#x0441;&#x044f;&#x0447;&#x0435;&#x043b;&#x0435;&#x0442;&#x043d;&#x0435;&#x0435;</tspan></text>
<text xml:space="preserve" transform="matrix(.25 0 0 .25 307.9595 118.19945)" font-size="30" font-family="Roboto"><tspan y="67" x="47 65 81 98 114 128 145">&#x0446;&#x0430;&#x0440;&#x0441;&#x0442;&#x0432;&#x043e;</tspan></text>
<path transform="matrix(.25,0,0,.25,0,0)" stroke-width="4" stroke-linecap="round" stroke-linejoin="round" fill="none" stroke="#000000" d="M1486.1132 510.7978H1755.5873"/>
<path transform="matrix(.25,0,0,.25,0,0)" stroke-width="4" stroke-linecap="round" stroke-linejoin="round" fill="none" stroke="#000000" d="M1735.5873 494.7978 1755.5873 510.7978 1735.5873 526.7978"/>
<path transform="matrix(.25,0,0,.25,0,0)" stroke-width="4" stroke-linecap="round" stroke-linejoin="round" fill="none" stroke="#000000" d="M1755.588 431.2398V590.3558H2056.14V431.2398H1755.588"/>
<text xml:space="preserve" transform="matrix(.25 0 0 .25 460.71604 118.19945)" font-size="30" font-family="Roboto"><tspan y="32" x="5 24 40 57 74 90 106">&#x0412;&#x0435;&#x043b;&#x0438;&#x043a;&#x0430;&#x044f;</tspan></text>
<text xml:space="preserve" transform="matrix(.25 0 0 .25 460.71604 118.19945)" font-size="30" font-family="Roboto"><tspan y="67" x="14 30 45.691408 62.691408 79.69141 96.44141">&#x0441;&#x043a;&#x043e;&#x0440;&#x0431;&#x044c;</tspan></text>
<path transform="matrix(.25,0,0,.25,0,0)" stroke-width="4" stroke-linecap="round" stroke-linejoin="round" fill="none" stroke="#000000" d="M2056.147 510.7978H2325.621"/>
<path transform="matrix(.25,0,0,.25,0,0)" stroke-width="4" stroke-linecap="round" stroke-linejoin="round" fill="none" stroke="#000000" d="M2305.621 494.7978 2325.621 510.7978 2305.621 526.7978"/>
<path transform="matrix(.25,0,0,.25,0,0)" stroke-width="4" stroke-linecap="round" stroke-linejoin="round" fill="none" stroke="#000000" d="M2325.608 431.2398V590.3558H2626.1597V431.2398H2325.608"/>
<text xml:space="preserve" transform="matrix(.25 0 0 .25 582.72097 118.19945)" font-size="30" font-family="Roboto"><tspan y="32" x="5 26 43 59 76 92 109 125 138.38282 155.38282 172.38282 189.38282 205.38282 221.38282 237.38282 253.38282 269.3828">&#x041f;&#x043e;&#x0441;&#x043b;&#x0435;&#x0438;&#x0441;&#x0442;&#x043e;&#x0440;&#x0438;&#x0447;&#x0435;&#x0441;&#x043a;&#x0430;&#x044f;</tspan></text>
<text xml:space="preserve" transform="matrix(.25 0 0 .25 582.72097 118.19945)" font-size="30" font-family="Roboto"><tspan y="67" x="81 98 114 130 147 164 180 194">&#x0432;&#x0435;&#x0447;&#x043d;&#x043e;&#x0441;&#x0442;&#x044c;</tspan></text>
<text xml:space="preserve" transform="matrix(.25 0 0 .25 239.45619 97.69917)" font-size="30" font-family="Roboto"><tspan y="32" x="41 62 78 95 112 129">&#x041f;&#x0435;&#x0440;&#x0432;&#x043e;&#x0435;</tspan></text>
<text xml:space="preserve" transform="matrix(.25 0 0 .25 239.45619 97.69917)" font-size="30" font-family="Roboto"><tspan y="67" x="6 27 44 61 85 101 117 131 148 165">&#x041f;&#x0440;&#x0438;&#x0448;&#x0435;&#x0441;&#x0442;&#x0432;&#x0438;&#x0435;</tspan></text>
<text xml:space="preserve" transform="matrix(.25 0 0 .25 239.45619 97.69917)" font-size="30" font-family="Roboto"><tspan y="102" x="44 63 80 97 113 126.765628">&#x0425;&#x0440;&#x0438;&#x0441;&#x0442;&#x0430;</tspan></text>
<text xml:space="preserve" transform="matrix(.25 0 0 .25 97.824359 102.07417)" font-size="30" font-family="Roboto"><tspan y="32" x="6 26 42.67578 56.67578 73.67578 90.67578 107.67578 123.67578 140.67578 157.67578">&#x0421;&#x043e;&#x0442;&#x0432;&#x043e;&#x0440;&#x0435;&#x043d;&#x0438;&#x0435;</tspan></text>
<text xml:space="preserve" transform="matrix(.25 0 0 .25 97.824359 102.07417)" font-size="30" font-family="Roboto"><tspan y="67" x="53 75 92 109">&#x043c;&#x0438;&#x0440;&#x0430;</tspan></text>
<text xml:space="preserve" transform="matrix(.25 0 0 .25 379.08708 97.69917)" font-size="30" font-family="Roboto"><tspan y="32" x="53 74 90 106 122 139">&#x041d;&#x0430;&#x0447;&#x0430;&#x043b;&#x043e;</tspan></text>
<text xml:space="preserve" transform="matrix(.25 0 0 .25 379.08708 97.69917)" font-size="30" font-family="Roboto"><tspan y="67" x="5 23 39 56 72 86 103 120 137 153 170 187">&#x0446;&#x0430;&#x0440;&#x0441;&#x0442;&#x0432;&#x043e;&#x0432;&#x0430;&#x043d;&#x0438;&#x044f;</tspan></text>
<text xml:space="preserve" transform="matrix(.25 0 0 .25 379.08708 97.69917)" font-size="30" font-family="Roboto"><tspan y="102" x="25 41 58 72 89 104 121 138 154 167.76563">&#x0430;&#x043d;&#x0442;&#x0438;&#x0445;&#x0440;&#x0438;&#x0441;&#x0442;&#x0430;</tspan></text>
<text xml:space="preserve" transform="matrix(.25 0 0 .25 524.4708 97.69917)" font-size="30" font-family="Roboto"><tspan y="32" x="44 63 76.38281 93.38281 110.38281 127.38281">&#x0412;&#x0442;&#x043e;&#x0440;&#x043e;&#x0435;</tspan></text>
<text xml:space="preserve" transform="matrix(.25 0 0 .25 524.4708 97.69917)" font-size="30" font-family="Roboto"><tspan y="67" x="6 27 44 61 85 101 117 131 148 165">&#x041f;&#x0440;&#x0438;&#x0448;&#x0435;&#x0441;&#x0442;&#x0432;&#x0438;&#x0435;</tspan></text>
<text xml:space="preserve" transform="matrix(.25 0 0 .25 524.4708 97.69917)" font-size="30" font-family="Roboto"><tspan y="102" x="44 63 80 97 113 126.765628">&#x0425;&#x0440;&#x0438;&#x0441;&#x0442;&#x0430;</tspan></text>
<path transform="matrix(.25,0,0,.25,0,0)" stroke-width="3" stroke-linecap="round" stroke-linejoin="round" fill="none" stroke="#000000" d="M1050.8241 357.43519C1050.8241 333.2907 1070.3971 313.71778 1094.5415 313.71778H1577.1327C1601.2771 313.71778 1620.8501 294.14485 1620.8501 270.00038 1620.8501 294.14485 1640.4231 313.71778 1664.5675 313.71778H2147.1588C2171.303 313.71778 2190.876 333.2907 2190.876 357.43519"/>
<text xml:space="preserve" transform="matrix(.25 0 0 .25 348.33708 53.37495)" font-size="40" font-family="Roboto"><tspan y="43" x="1 26 48 69 99 120 143 165 175 204 227 250 273 289.60939 312.60939 322.60939 346.60939 368.60939 391.60939 412.39454 431.08204">&#x0412;&#x0440;&#x0435;&#x043c;&#x0435;&#x043d;&#x0430; &#x041d;&#x043e;&#x0432;&#x043e;&#x0433;&#x043e; &#x0417;&#x0430;&#x0432;&#x0435;&#x0442;&#x0430;</tspan></text>
<path transform="matrix(.25,0,0,.25,0,0)" stroke-width="3" stroke-linecap="round" stroke-linejoin="round" fill="none" stroke="#000000" d="M480.797 241.49971C480.797 211.53832 505.0855 187.2498 535.0469 187.2498H1281.5862C1311.5476 187.2498 1335.836 162.96129 1335.836 132.9999 1335.836 162.96129 1360.1245 187.2498 1390.0859 187.2498H2136.625C2166.5865 187.2498 2190.875 211.53832 2190.875 241.49971"/>
<path transform="matrix(.25,0,0,.25,0,0)" d="M483.79798 258.29774V266.29774H479.79798V258.29774M483.79798 274.29774H479.79798M483.79798 274.29774V282.29774H479.79798V274.29774M483.79798 290.29774H479.79798M483.79798 290.29774V298.29774H479.79798V290.29774M483.79798 306.29774H479.79798M483.79798 306.29774V314.29774H479.79798V306.29774M483.79798 322.29774H479.79798M483.79798 322.29774V330.29774H479.79798V322.29774M483.79798 338.29774H479.79798M483.79798 338.29774V346.29774H479.79798V338.29774M483.79798 354.29774H479.79798M483.79798 354.29774V362.29774H479.79798V354.29774M483.79798 370.29774H479.79798M483.79798 370.29774V378.29774H479.79798V370.29774M483.79798 386.29774H479.79798M483.79798 386.29774V394.29774H479.79798V386.29774"/>
<text xml:space="preserve" transform="matrix(.25 0 0 .25 306.08415 11.99995)" font-size="56" font-family="Roboto"><tspan y="60" x="1 41 70 95.85156 127.85156 158.85157 190.85157">&#x0418;&#x0441;&#x0442;&#x043e;&#x0440;&#x0438;&#x044f;</tspan></text>
<path transform="matrix(.25,0,0,.25,0,0)" stroke-width="4" stroke-linecap="round" stroke-linejoin="round" fill="none" stroke="#000000" d="M2475.8843 880.1109 2475.8839 975.3487"/>
<path transform="matrix(.25,0,0,.25,0,0)" stroke-width="4" stroke-linecap="round" stroke-linejoin="round" fill="none" stroke="#000000" d="M2366.341 765.4058V878.5938H2585.427V765.4058H2366.341"/>
<text xml:space="preserve" transform="matrix(.25 0 0 .25 598.846 195.99996)" font-size="30" font-family="Roboto"><tspan y="32" x="25 42 50 67 74 86.70703 102.65234 120.65234">3.5 &#x0433;&#x043e;&#x0434;&#x0430;</tspan></text>
<text xml:space="preserve" transform="matrix(.25 0 0 .25 598.846 195.99996)" font-size="30" font-family="Roboto"><tspan y="67" x="0 10 31 45 61 78 86 93 110 127 134 151">(&#x041e;&#x0442;&#x043a;&#x0440;. 13:5)</tspan></text>
<path transform="matrix(.25,0,0,.25,0,0)" stroke-width="4" stroke-linecap="round" stroke-linejoin="round" fill="none" stroke="#000000" d="M346.075 1054.9058H615.549"/>
<path transform="matrix(.25,0,0,.25,0,0)" stroke-width="4" stroke-linecap="round" stroke-linejoin="round" fill="none" stroke="#000000" d="M595.549 1038.9058 615.549 1054.9058 595.549 1070.9058"/>
<path transform="matrix(.25,0,0,.25,0,0)" stroke-width="4" stroke-linecap="round" stroke-linejoin="round" fill="none" stroke="#000000" d="M41.014009 975.34786V1134.4638H341.56599V975.34786H41.014009"/>
<text xml:space="preserve" transform="matrix(.25 0 0 .25 38.3225 258.60145)" font-size="30" font-family="Roboto"><tspan y="32" x="0 20 38 54">&#x0410;&#x0434;&#x0430;&#x043c;</tspan></text>
<path transform="matrix(.25,0,0,.25,0,0)" stroke-width="4" stroke-linecap="round" stroke-linejoin="round" fill="none" stroke="#000000" d="M615.548 975.34786V1134.4638H916.1V975.34786H615.548"/>
<text xml:space="preserve" transform="matrix(.25 0 0 .25 159.831 258.60145)" font-size="30" font-family="Roboto"><tspan y="32" x="0 19 35 51 73 90 107 124 147 164 171 188 204.67578 218.0586 235.0586">&#x0412;&#x0441;&#x0435;&#x043c;&#x0438;&#x0440;&#x043d;&#x044b;&#x0439; &#x043f;&#x043e;&#x0442;&#x043e;&#x043f;</tspan></text>
<path transform="matrix(.25,0,0,.25,0,0)" stroke-width="4" stroke-linecap="round" stroke-linejoin="round" fill="none" stroke="#000000" d="M916.10098 1054.9058H1185.5751"/>
<path transform="matrix(.25,0,0,.25,0,0)" stroke-width="4" stroke-linecap="round" stroke-linejoin="round" fill="none" stroke="#000000" d="M1165.5751 1038.9058 1185.5751 1054.9058 1165.5751 1070.9058"/>
<path transform="matrix(.25,0,0,.25,0,0)" stroke-width="4" stroke-linecap="round" stroke-linejoin="round" fill="none" stroke="#000000" d="M1185.576 975.34786V1134.4638H1486.128V975.34786H1185.576"/>
<text xml:space="preserve" transform="matrix(.25 0 0 .25 298.838 258.60145)" font-size="30" font-family="Roboto"><tspan y="32" x="0 19 35 52 69 86 103 120 136 152 168 184 191 208 224 248 265">&#x0412;&#x0430;&#x0432;&#x0438;&#x043b;&#x043e;&#x043d;&#x0441;&#x043a;&#x0430;&#x044f; &#x0431;&#x0430;&#x0448;&#x043d;&#x044f;</tspan></text>
<path transform="matrix(.25,0,0,.25,0,0)" stroke-width="4" stroke-linecap="round" stroke-linejoin="round" fill="none" stroke="#000000" d="M1486.1271 1054.9058H1755.6012"/>
<path transform="matrix(.25,0,0,.25,0,0)" stroke-width="4" stroke-linecap="round" stroke-linejoin="round" fill="none" stroke="#000000" d="M1735.6012 1038.9058 1755.6012 1054.9058 1735.6012 1070.9058"/>
<path transform="matrix(.25,0,0,.25,0,0)" stroke-width="4" stroke-linecap="round" stroke-linejoin="round" fill="none" stroke="#000000" d="M1755.602 975.34786V1134.4638H2056.1539V975.34786H1755.602"/>
<text xml:space="preserve" transform="matrix(.25 0 0 .25 455.9695 254.22646)" font-size="30" font-family="Roboto"><tspan y="32" x="4 22.808594 39.5 62.5 80.5 96.5 112.5 126.5 143.5">&#x0420;&#x043e;&#x0436;&#x0434;&#x0435;&#x0441;&#x0442;&#x0432;&#x043e;</tspan></text>
<text xml:space="preserve" transform="matrix(.25 0 0 .25 455.9695 254.22646)" font-size="30" font-family="Roboto"><tspan y="67" x="16 35 52 69 85 98.38281 115.38281 132.38282">&#x0425;&#x0440;&#x0438;&#x0441;&#x0442;&#x043e;&#x0432;&#x043e;</tspan></text>
<path transform="matrix(.25,0,0,.25,0,0)" stroke-width="4" stroke-linecap="round" stroke-linejoin="round" fill="none" stroke="#000000" d="M2325.628 975.34786V1134.4638H2626.1798V975.34786H2325.628"/>
<text xml:space="preserve" transform="matrix(.25 0 0 .25 603.22598 254.22646)" font-size="30" font-family="Roboto"><tspan y="32" x="5 24 40 57 74 90 106">&#x0412;&#x0435;&#x043b;&#x0438;&#x043a;&#x0430;&#x044f;</tspan></text>
<text xml:space="preserve" transform="matrix(.25 0 0 .25 603.22598 254.22646)" font-size="30" font-family="Roboto"><tspan y="67" x="14 30 45.691408 62.691408 79.69141 96.44141">&#x0441;&#x043a;&#x043e;&#x0440;&#x0431;&#x044c;</tspan></text>
<text xml:space="preserve" transform="matrix(.25 0 0 .25 249.33412 242.47652)" font-size="30" font-family="Roboto"><tspan y="32" x="1 18 35 52 59 71.70703 87.65234">721 &#x0433;&#x043e;&#x0434;</tspan></text>
<text xml:space="preserve" transform="matrix(.25 0 0 .25 104.70326 242.47652)" font-size="30" font-family="Roboto"><tspan y="32" x="2 19 36 53 70 77 94 109.83594">1656 &#x043b;&#x0435;&#x0442;</tspan></text>
<text xml:space="preserve" transform="matrix(.25 0 0 .25 389.71598 242.47652)" font-size="30" font-family="Roboto"><tspan y="32" x="2 19 36 53 70 77 89.70703 105.65234">3131 &#x0433;&#x043e;&#x0434;</tspan></text>
<path transform="matrix(.25,0,0,.25,0,0)" stroke-width="3" stroke-linecap="round" stroke-linejoin="round" fill="none" stroke="#000000" d="M41.016008 889.4057C41.016008 859.5824 65.19258 835.4058 95.015888 835.4058H994.5761C1024.3994 835.4058 1048.576 811.22927 1048.576 781.40597 1048.576 811.22927 1072.7527 835.4058 1102.5759 835.4058H2002.1361C2031.9596 835.4058 2056.136 859.5824 2056.136 889.4057"/>
<text xml:space="preserve" transform="matrix(.25 0 0 .25 233.39369 170.10152)" font-size="56" font-family="Roboto"><tspan y="60" x="2 33 64 95 127 141 173 202.69922">5508 &#x043b;&#x0435;&#x0442;</tspan></text>
</g>
</svg>
