<?xml version="1.0" encoding="UTF-8"?>
<svg xmlns="http://www.w3.org/2000/svg" xmlns:xlink="http://www.w3.org/1999/xlink" width="15px" height="15px" viewBox="0 0 15 15" version="1.1">
<g id="surface1">
<path style=" stroke:none;fill-rule:nonzero;fill:rgb(0%,0%,0%);fill-opacity:1;" d="M 2.8125 13.125 C 2.5625 13.125 2.34375 13.03125 2.15625 12.84375 C 1.96875 12.65625 1.875 12.4375 1.875 12.1875 L 1.875 2.8125 C 1.875 2.5625 1.96875 2.34375 2.15625 2.15625 C 2.34375 1.96875 2.5625 1.875 2.8125 1.875 L 7.171875 1.875 L 7.171875 2.8125 L 2.8125 2.8125 L 2.8125 12.1875 L 12.1875 12.1875 L 12.1875 7.828125 L 13.125 7.828125 L 13.125 12.1875 C 13.125 12.4375 13.03125 12.65625 12.84375 12.84375 C 12.65625 13.03125 12.4375 13.125 12.1875 13.125 Z M 5.96875 9.703125 L 5.3125 9.03125 L 11.53125 2.8125 L 8.109375 2.8125 L 8.109375 1.875 L 13.125 1.875 L 13.125 6.890625 L 12.1875 6.890625 L 12.1875 3.484375 Z M 5.96875 9.703125 "/>
</g>
</svg>
