<svg xmlns="http://www.w3.org/2000/svg" xmlns:xlink="http://www.w3.org/1999/xlink" version="1.1" width="225.43073pt" height="136.65489pt" viewBox="0 0 225.43073 136.65489">
<defs>
<clipPath id="clip_0">
<path transform="matrix(1,0,0,-1,-45.07305,362.08564)" d="M45.07305 225.43074H270.50379V362.08564H45.07305Z" fill-rule="evenodd"/>
</clipPath>
<clipPath id="clip_1">
<path transform="matrix(1,0,0,1,-45.07305,-33.914369)" d="M0 0H306V396H0Z" fill-rule="evenodd"/>
</clipPath>
</defs>
<g clip-path="url(#clip_0)">
<g clip-path="url(#clip_1)">
<path transform="matrix(.25,0,0,.25,-45.07305,-33.914369)" stroke-width="4" stroke-linecap="round" stroke-linejoin="round" fill="none" stroke="#000000" d="M528 152V232H728V152H528"/>
<text xml:space="preserve" transform="matrix(.25 0 0 .25 92.42695 8.960632)" font-size="30" font-family="Roboto"><tspan y="32" x="1 22 44 66 80 97 114 126.828128 142.66407">&#x0418;&#x043c;&#x043c;&#x0443;&#x043d;&#x0438;&#x0442;&#x0435;&#x0442;</tspan></text>
<path transform="matrix(.25,0,0,.25,-45.07305,-33.914369)" stroke-width="4" stroke-linecap="round" stroke-linejoin="round" fill="none" stroke="#000000" d="M628 280V232"/>
<path transform="matrix(.25,0,0,.25,-45.07305,-33.914369)" stroke-width="4" stroke-linecap="round" stroke-linejoin="round" fill="none" stroke="#000000" d="M364.12507 280H891.87496"/>
<path transform="matrix(.25,0,0,.25,-45.07305,-33.914369)" stroke-width="4" stroke-linecap="round" stroke-linejoin="round" fill="none" stroke="#000000" d="M364.12507 328V280"/>
<path transform="matrix(.25,0,0,.25,-45.07305,-33.914369)" stroke-width="4" stroke-linecap="round" stroke-linejoin="round" fill="none" stroke="#000000" d="M891.87496 327.99998V279.99998"/>
<path transform="matrix(.25,0,0,.25,-45.07305,-33.914369)" stroke-width="4" stroke-linecap="round" stroke-linejoin="round" fill="none" stroke="#000000" d="M758.62496 328V408H1025.125V328H758.62496"/>
<text xml:space="preserve" transform="matrix(.25 0 0 .25 149.77069 52.960634)" font-size="30" font-family="Roboto"><tspan y="32" x="0 21 38 55 72 88.75 105.75 121.58594 134.41407 150.41407 167.41407 184.41407 207.41407">&#x041f;&#x0440;&#x0438;&#x043e;&#x0431;&#x0440;&#x0435;&#x0442;&#x0451;&#x043d;&#x043d;&#x044b;&#x0439;</tspan></text>
<path transform="matrix(.25,0,0,.25,-45.07305,-33.914369)" stroke-width="4" stroke-linecap="round" stroke-linejoin="round" fill="none" stroke="#000000" d="M230.87506 328.00007V408.00007H497.37507V328.00007H230.87506"/>
<text xml:space="preserve" transform="matrix(.25 0 0 .25 22.958214 52.960649)" font-size="30" font-family="Roboto"><tspan y="32" x="1 20 37 53.691408 76.69141 94.69141 110.69141 127.69141 144.6914 167.6914">&#x0412;&#x0440;&#x043e;&#x0436;&#x0434;&#x0451;&#x043d;&#x043d;&#x044b;&#x0439;</tspan></text>
<path transform="matrix(.25,0,0,.25,-45.07305,-33.914369)" stroke-width="4" stroke-linecap="round" stroke-linejoin="round" fill="none" stroke="#000000" d="M891.87496 455.99998V407.99998"/>
<path transform="matrix(.25,0,0,.25,-45.07305,-33.914369)" stroke-width="4" stroke-linecap="round" stroke-linejoin="round" fill="none" stroke="#000000" d="M758.62496 456V664H1025.125V456H758.62496"/>
<text xml:space="preserve" transform="matrix(.25 0 0 .25 147.14569 83.46063)" font-size="30" font-family="Roboto"><tspan y="32" x="4 23 46 63 79 96 111.765628 125.765628 148.76563 165.76563 181.76563 197.60157 210.42969 226.42969">&#x0412;&#x044b;&#x0440;&#x0430;&#x0431;&#x0430;&#x0442;&#x044b;&#x0432;&#x0430;&#x0435;&#x0442;&#x0441;&#x044f;</tspan></text>
<text xml:space="preserve" transform="matrix(.25 0 0 .25 147.14569 83.46063)" font-size="30" font-family="Roboto"><tspan y="67" x="36 53 60 77 93 108 121.39844 138.39844 153.3711 167.13672 182.90235 195.73047">&#x0432; &#x0440;&#x0435;&#x0437;&#x0443;&#x043b;&#x044c;&#x0442;&#x0430;&#x0442;&#x0435;</tspan></text>
<text xml:space="preserve" transform="matrix(.25 0 0 .25 147.14569 83.46063)" font-size="30" font-family="Roboto"><tspan y="102" x="24 41 57 74 90 107 123 139 155 172 189 206">&#x043f;&#x0435;&#x0440;&#x0435;&#x043d;&#x0435;&#x0441;&#x0451;&#x043d;&#x043d;&#x043e;&#x0439;</tspan></text>
<text xml:space="preserve" transform="matrix(.25 0 0 .25 147.14569 83.46063)" font-size="30" font-family="Roboto"><tspan y="137" x="37 54 70.765628 87.765628 103.765628 118.765628 135.76563 152.76563 159.76563 176.76563 193.76563">&#x0431;&#x043e;&#x043b;&#x0435;&#x0437;&#x043d;&#x0438; &#x0438;&#x043b;&#x0438;</tspan></text>
<text xml:space="preserve" transform="matrix(.25 0 0 .25 147.14569 83.46063)" font-size="30" font-family="Roboto"><tspan y="172" x="39 56 72 88 106 123 140 156 174 191">&#x0432;&#x0430;&#x043a;&#x0446;&#x0438;&#x043d;&#x0430;&#x0446;&#x0438;&#x0438;</tspan></text>
<path transform="matrix(.25,0,0,.25,-45.07305,-33.914369)" stroke-width="4" stroke-linecap="round" stroke-linejoin="round" fill="none" stroke="#000000" d="M364.12507 456.00007V408.00007"/>
<path transform="matrix(.25,0,0,.25,-45.07305,-33.914369)" stroke-width="4" stroke-linecap="round" stroke-linejoin="round" fill="none" stroke="#000000" d="M230.87506 456.00007V664.00009H497.37507V456.00007H230.87506"/>
<text xml:space="preserve" transform="matrix(.25 0 0 .25 19.333214 96.58565)" font-size="30" font-family="Roboto"><tspan y="32" x="4 25 41 58 74 92 108 123.83594 136.66407 152.66407 168.66407 175.66407 192.66407">&#x041f;&#x0435;&#x0440;&#x0435;&#x0434;&#x0430;&#x0451;&#x0442;&#x0441;&#x044f; &#x043f;&#x043e;</tspan></text>
<text xml:space="preserve" transform="matrix(.25 0 0 .25 19.333214 96.58565)" font-size="30" font-family="Roboto"><tspan y="67" x="26 43 59 75 92 108 126 142 156 172.83594">&#x043d;&#x0430;&#x0441;&#x043b;&#x0435;&#x0434;&#x0441;&#x0442;&#x0432;&#x0443;</tspan></text>
</g>
</g>
</svg>
