<svg font-family="sans-serif" xmlns="http://www.w3.org/2000/svg" xmlns:xlink="http://www.w3.org/1999/xlink" version="1.1" width="1601pt" height="599pt" viewBox="0 0 1601 599"><g enable-background="new"><g><clipPath id="cp0"><path d="M 0 0 L 1601 0 L 1601 599 L 0 599 Z " fill-rule="evenodd"/></clipPath><g clip-path="url(#cp0)"><path d="M 0 0 L 1601 0 L 1601 599 L 0 599 Z " fill="#ffffff"/><g><clipPath id="cp1"><path d="M 0 0 L 1601 0 L 1601 599 L 0 599 Z " fill-rule="evenodd"/></clipPath><g clip-path="url(#cp1)"><path stroke-width="2" stroke-linecap="butt" stroke-miterlimit="4" stroke-linejoin="miter" fill="none" stroke="#000000" d="M 919.5 148 L 919.5 174 L 349 174 C 343.66667 174 341 176.66667 341 182 L 341 200 "/><path stroke-width="2" stroke-linecap="butt" stroke-miterlimit="4" stroke-linejoin="miter" fill="none" stroke="#000000" d="M 919.5 148 L 919.5 174 L 1103.5 174 C 1108.8334 174 1111.5 176.66667 1111.5 182 L 1111.5 200 "/><path stroke-width="2" stroke-linecap="butt" stroke-miterlimit="4" stroke-linejoin="miter" fill="none" stroke="#000000" d="M 341 275 L 341 295 L 186.5 295 C 181.16667 295 178.5 297.66667 178.5 303 L 178.5 315 "/><path stroke-width="2" stroke-linecap="butt" stroke-miterlimit="4" stroke-linejoin="miter" fill="none" stroke="#000000" d="M 341 275 L 341 295 L 440 295 C 445.33335 295 448 297.66667 448 303 L 448 315 "/><path stroke-width="2" stroke-linecap="butt" stroke-miterlimit="4" stroke-linejoin="miter" fill="none" stroke="#000000" d="M 1111.5 275 L 1111.5 295 L 859 295 L 859 315 "/><path stroke-width="2" stroke-linecap="butt" stroke-miterlimit="4" stroke-linejoin="miter" fill="none" stroke="#000000" d="M 1111.5 275 L 1111.5 295 L 1195 295 L 1195 315 "/><path stroke-width="2" stroke-linecap="butt" stroke-miterlimit="4" stroke-linejoin="miter" fill="none" stroke="#000000" d="M 1111.5 275 L 1111.5 295 L 1453 295 L 1453 315 "/><path stroke-width="2" stroke-linecap="butt" stroke-miterlimit="4" stroke-linejoin="miter" fill="none" stroke="#000000" d="M 178.5 371 L 179.5 411 "/><path stroke-width="2" stroke-linecap="butt" stroke-miterlimit="4" stroke-linejoin="miter" fill="none" stroke="#000000" d="M 448 371 L 448.5 411 "/><path stroke-width="2" stroke-linecap="butt" stroke-miterlimit="4" stroke-linejoin="miter" fill="none" stroke="#000000" d="M 859 371 L 859 391 L 714.5 391 C 709.1667 391 706.5 393.66667 706.5 399 L 706.5 411 "/><path stroke-width="2" stroke-linecap="butt" stroke-miterlimit="4" stroke-linejoin="miter" fill="none" stroke="#000000" d="M 859 371 L 859 391 L 956 391 C 961.3333 391 964 393.66667 964 399 L 964 411 "/><path stroke-width="2" stroke-linecap="butt" stroke-miterlimit="4" stroke-linejoin="miter" fill="none" stroke="#000000" d="M 1195 371 L 1195.5 411 "/><path stroke-width="2" stroke-linecap="butt" stroke-miterlimit="4" stroke-linejoin="miter" fill="none" stroke="#000000" d="M 1453 371 L 1453.5 411 "/><path stroke-width="2" stroke-linecap="butt" stroke-miterlimit="4" stroke-linejoin="miter" fill="none" stroke="#000000" d="M 706.5 467 L 707.5 507 "/><path stroke-width="2" stroke-linecap="butt" stroke-miterlimit="4" stroke-linejoin="miter" fill="none" stroke="#000000" d="M 964 467 L 964.5 507 "/></g></g><path transform="matrix(1,0,0,1,794,36)" stroke-width="2" stroke-linecap="butt" stroke-miterlimit="4" stroke-linejoin="miter" fill="none" stroke="#2e0000" d="M 0 8 L 0 104 C 0 105.06086 .20298788 106.081348 .60896369 107.061458 C 1.0149394 108.041568 1.593 108.9067 2.3431457 109.656848 C 3.0932909 110.40699 3.9584196 110.98505 4.938532 111.391017 C 5.9186446 111.797 6.9391338 111.99999 8 112 L 243 112 C 244.06084 111.99999 245.08132 111.797 246.06142 111.391017 C 247.04154 110.98505 247.90668 110.40699 248.65683 109.656848 C 249.40697 108.9067 249.98503 108.041568 250.391 107.061458 C 250.79698 106.081348 250.99999 105.06086 251 104 L 251 8 C 250.99999 6.9391338 250.79698 5.9186446 250.391 4.938532 C 249.98503 3.9584196 249.40697 3.0932909 248.65683 2.3431457 C 247.90668 1.593 247.04154 1.0149394 246.06142 .60896369 C 245.08132 .20298788 244.06084 0 243 0 L 8 0 C 6.9391338 0 5.9186446 .20298788 4.938532 .60896369 C 3.9584196 1.0149394 3.0932909 1.593 2.3431457 2.3431457 C 1.593 3.0932909 1.0149394 3.9584196 .60896369 4.938532 C .20298788 5.9186446 0 6.9391338 0 8 Z "/></g><clipPath id="cp2"><path d="M 816 54 L 1023 54 L 1023 130 L 816 130 Z " fill-rule="evenodd"/></clipPath><g clip-path="url(#cp2)"><text xml:space="preserve" transform="matrix(1 0 0 1 816 54)" font-size="56" ><tspan y="60" x="0 39 68.5625 97.5625 129.5625 163.5625">&#x041e;&#x043a;&#x0441;&#x0438;&#x0434;&#x044b;</tspan></text></g><clipPath id="cp3"><path d="M 0 0 L 1601 0 L 1601 599 L 0 599 Z " fill-rule="evenodd"/></clipPath><g clip-path="url(#cp3)"><path transform="matrix(1,0,0,1,215,200)" stroke-width="2" stroke-linecap="butt" stroke-miterlimit="4" stroke-linejoin="miter" fill="none" stroke="#2e0000" d="M 0 8 L 0 67 C 0 68.06086 .20298788 69.08135 .60896369 70.06146 C 1.0149394 71.04157 1.593 71.9067 2.3431457 72.656848 C 3.0932909 73.40699 3.9584196 73.985057 4.938532 74.39103 C 5.9186446 74.797 6.9391338 74.99999 8 75 L 244 75 C 245.06087 74.99999 246.08135 74.797 247.06147 74.39103 C 248.04157 73.985057 248.9067 73.40699 249.65685 72.656848 C 250.40699 71.9067 250.98503 71.04157 251.391 70.06146 C 251.79698 69.08135 251.99999 68.06086 252 67 L 252 8 C 251.99999 6.9391338 251.79698 5.9186446 251.391 4.938532 C 250.98503 3.9584196 250.40699 3.0932909 249.65685 2.3431457 C 248.9067 1.593 248.04157 1.0149394 247.06145 .60896369 C 246.08135 .20298788 245.06087 0 244 0 L 8 0 C 6.9391338 0 5.9186446 .20298788 4.938532 .60896369 C 3.9584196 1.0149394 3.0932909 1.593 2.3431457 2.3431457 C 1.593 3.0932909 1.0149394 3.9584196 .60896369 4.938532 C .20298788 5.9186446 0 6.9391338 0 8 Z "/></g><clipPath id="cp4"><path d="M 235 213 L 447 213 L 447 262 L 235 262 Z " fill-rule="evenodd"/></clipPath><g clip-path="url(#cp4)"><text xml:space="preserve" transform="matrix(1 0 0 1 235 213)" font-size="36" ><tspan y="39" x="0 26 45 72 90.80469 107.52344 127.52344 148.52344 169.52344 190.52344">&#x041d;&#x0435;&#x043c;&#x0435;&#x0442;&#x0430;&#x043b;&#x043b;&#x043e;&#x0432;</tspan></text></g><clipPath id="cp5"><path d="M 0 0 L 1601 0 L 1601 599 L 0 599 Z " fill-rule="evenodd"/></clipPath><g clip-path="url(#cp5)"><path transform="matrix(1,0,0,1,1006,200)" stroke-width="2" stroke-linecap="butt" stroke-miterlimit="4" stroke-linejoin="miter" fill="none" stroke="#2e0000" d="M 0 8 L 0 67 C 0 68.06086 .20298788 69.08135 .60896369 70.06146 C 1.0149394 71.04157 1.593 71.9067 2.3431457 72.656848 C 3.0932909 73.40699 3.9584196 73.985057 4.938532 74.39103 C 5.9186446 74.797 6.9391338 74.99999 8 75 L 203 75 C 204.06085 74.99999 205.08133 74.797 206.06145 74.39103 C 207.04157 73.985057 207.9067 73.40699 208.65685 72.656848 C 209.40697 71.9067 209.98502 71.04157 210.391 70.06146 C 210.79698 69.08135 210.99999 68.06086 211 67 L 211 8 C 210.99999 6.9391338 210.79698 5.9186446 210.391 4.938532 C 209.98502 3.9584196 209.40697 3.0932909 208.65685 2.3431457 C 207.9067 1.593 207.04157 1.0149394 206.06145 .60896369 C 205.08133 .20298788 204.06085 0 203 0 L 8 0 C 6.9391338 0 5.9186446 .20298788 4.938532 .60896369 C 3.9584196 1.0149394 3.0932909 1.593 2.3431457 2.3431457 C 1.593 3.0932909 1.0149394 3.9584196 .60896369 4.938532 C .20298788 5.9186446 0 6.9391338 0 8 Z "/></g><clipPath id="cp6"><path d="M 1026 213 L 1197 213 L 1197 262 L 1026 262 Z " fill-rule="evenodd"/></clipPath><g clip-path="url(#cp6)"><text xml:space="preserve" transform="matrix(1 0 0 1 1026 213)" font-size="36" ><tspan y="39" x="0 31 49.804689 66.52344 86.52344 107.52344 128.52344 149.52344">&#x041c;&#x0435;&#x0442;&#x0430;&#x043b;&#x043b;&#x043e;&#x0432;</tspan></text></g><clipPath id="cp7"><path d="M 0 0 L 1601 0 L 1601 599 L 0 599 Z " fill-rule="evenodd"/></clipPath><g clip-path="url(#cp7)"><path transform="matrix(1,0,0,1,36,315)" stroke-width="2" stroke-linecap="butt" stroke-miterlimit="4" stroke-linejoin="miter" fill="none" stroke="#2e0000" d="M 0 8 L 0 48 C 0 49.060865 .20298788 50.08135 .60896369 51.06146 C 1.0149394 52.041574 1.593 52.9067 2.3431457 53.65685 C 3.0932909 54.406995 3.9584196 54.985055 4.938532 55.39103 C 5.9186446 55.797006 6.9391338 55.999998 8 56 L 277 56 C 278.06083 55.999998 279.08134 55.797006 280.06147 55.39103 C 281.04158 54.985055 281.9067 54.406995 282.65687 53.65685 C 283.40699 52.9067 283.98506 52.041574 284.39103 51.06146 C 284.797 50.08135 284.99998 49.060865 285 48 L 285 8 C 284.99998 6.9391338 284.797 5.9186446 284.39103 4.938532 C 283.98506 3.9584196 283.40699 3.0932909 282.65687 2.3431457 C 281.9067 1.593 281.04158 1.0149394 280.06147 .60896369 C 279.08134 .20298788 278.06083 0 277 0 L 8 0 C 6.9391338 0 5.9186446 .20298788 4.938532 .60896369 C 3.9584196 1.0149394 3.0932909 1.593 2.3431457 2.3431457 C 1.593 3.0932909 1.0149394 3.9584196 .60896369 4.938532 C .20298788 5.9186446 0 6.9391338 0 8 Z "/></g><clipPath id="cp8"><path d="M 48 323 L 309 323 L 309 361 L 48 361 Z " fill-rule="evenodd"/></clipPath><g clip-path="url(#cp8)"><text xml:space="preserve" transform="matrix(1 0 0 1 48 323)" font-size="28" ><tspan y="30" x="0 17 24 41.60547 47.60547 54.60547 72.60547 90.21094 96.21094 103.21094 123.21094 140.8164 146.8164 153.8164 173.8164 183.8164 201.42188 207.42188 214.42188 231.42188 241.42188">SiO, CO, NO, N&#x2082;O, S&#x2082;O</tspan></text></g><clipPath id="cp9"><path d="M 0 0 L 1601 0 L 1601 599 L 0 599 Z " fill-rule="evenodd"/></clipPath><g clip-path="url(#cp9)"><path transform="matrix(1,0,0,1,363,315)" stroke-width="2" stroke-linecap="butt" stroke-miterlimit="4" stroke-linejoin="miter" fill="none" stroke="#2e0000" d="M 0 8 L 0 48 C 0 49.060865 .20298788 50.08135 .60896369 51.06146 C 1.0149394 52.041574 1.593 52.9067 2.3431457 53.65685 C 3.0932909 54.406995 3.9584196 54.985055 4.938532 55.39103 C 5.9186446 55.797006 6.9391338 55.999998 8 56 L 162 56 C 163.06085 55.999998 164.08133 55.797006 165.06145 55.39103 C 166.04155 54.985055 166.90668 54.406995 167.65685 53.65685 C 168.40699 52.9067 168.98505 52.041574 169.39102 51.06146 C 169.797 50.08135 169.99999 49.060865 170 48 L 170 8 C 169.99999 6.9391338 169.797 5.9186446 169.39102 4.938532 C 168.98505 3.9584196 168.40699 3.0932909 167.65685 2.3431457 C 166.90668 1.593 166.04155 1.0149394 165.06145 .60896369 C 164.08133 .20298788 163.06085 0 162 0 L 8 0 C 6.9391338 0 5.9186446 .20298788 4.938532 .60896369 C 3.9584196 1.0149394 3.0932909 1.593 2.3431457 2.3431457 C 1.593 3.0932909 1.0149394 3.9584196 .60896369 4.938532 C .20298788 5.9186446 0 6.9391338 0 8 Z "/></g><clipPath id="cp10"><path d="M 375 323 L 521 323 L 521 361 L 375 361 Z " fill-rule="evenodd"/></clipPath><g clip-path="url(#cp10)"><text xml:space="preserve" transform="matrix(1 0 0 1 375 323)" font-size="28" ><tspan y="30" x="0 19 34 46.78125 61.78125 77.78125 92.78125 108.78125 130.78125">&#x041e;&#x0441;&#x0442;&#x0430;&#x043b;&#x044c;&#x043d;&#x044b;&#x0435;</tspan></text></g><clipPath id="cp11"><path d="M 0 0 L 1601 0 L 1601 599 L 0 599 Z " fill-rule="evenodd"/></clipPath><g clip-path="url(#cp11)"><path transform="matrix(1,0,0,1,753,315)" stroke-width="2" stroke-linecap="butt" stroke-miterlimit="4" stroke-linejoin="miter" fill="none" stroke="#2e0000" d="M 0 8 L 0 48 C 0 49.060865 .20298788 50.08135 .60896369 51.06146 C 1.0149394 52.041574 1.593 52.9067 2.3431457 53.65685 C 3.0932909 54.406995 3.9584196 54.985055 4.938532 55.39103 C 5.9186446 55.797006 6.9391338 55.999998 8 56 L 204 56 C 205.06085 55.999998 206.08133 55.797006 207.06145 55.39103 C 208.04154 54.985055 208.90666 54.406995 209.65683 53.65685 C 210.40697 52.9067 210.98503 52.041574 211.391 51.06146 C 211.79698 50.08135 211.99999 49.060865 212 48 L 212 8 C 211.99999 6.9391338 211.79698 5.9186446 211.391 4.938532 C 210.98503 3.9584196 210.40697 3.0932909 209.65683 2.3431457 C 208.90666 1.593 208.04154 1.0149394 207.06143 .60896369 C 206.08133 .20298788 205.06085 0 204 0 L 8 0 C 6.9391338 0 5.9186446 .20298788 4.938532 .60896369 C 3.9584196 1.0149394 3.0932909 1.593 2.3431457 2.3431457 C 1.593 3.0932909 1.0149394 3.9584196 .60896369 4.938532 C .20298788 5.9186446 0 6.9391338 0 8 Z "/></g><clipPath id="cp12"><path d="M 765 323 L 953 323 L 953 361 L 765 361 Z " fill-rule="evenodd"/></clipPath><g clip-path="url(#cp12)"><text xml:space="preserve" transform="matrix(1 0 0 1 765 323)" font-size="28" ><tspan y="30" x="0 18 25 32 48 55 62 78 94 101 117 133 149 156 172">&#x0421;. &#x043e;. +1 &#x0438;&#x043b;&#x0438; +2</tspan></text></g><clipPath id="cp13"><path d="M 0 0 L 1601 0 L 1601 599 L 0 599 Z " fill-rule="evenodd"/></clipPath><g clip-path="url(#cp13)"><path transform="matrix(1,0,0,1,1089,315)" stroke-width="2" stroke-linecap="butt" stroke-miterlimit="4" stroke-linejoin="miter" fill="none" stroke="#2e0000" d="M 0 8 L 0 48 C 0 49.060865 .20298788 50.08135 .60896369 51.06146 C 1.0149394 52.041574 1.593 52.9067 2.3431457 53.65685 C 3.0932909 54.406995 3.9584196 54.985055 4.938532 55.39103 C 5.9186446 55.797006 6.9391338 55.999998 8 56 L 204 56 C 205.06085 55.999998 206.08133 55.797006 207.06145 55.39103 C 208.04154 54.985055 208.90666 54.406995 209.65683 53.65685 C 210.40697 52.9067 210.98503 52.041574 211.391 51.06146 C 211.79698 50.08135 211.99999 49.060865 212 48 L 212 8 C 211.99999 6.9391338 211.79698 5.9186446 211.391 4.938532 C 210.98503 3.9584196 210.40697 3.0932909 209.65683 2.3431457 C 208.90666 1.593 208.04154 1.0149394 207.06143 .60896369 C 206.08133 .20298788 205.06085 0 204 0 L 8 0 C 6.9391338 0 5.9186446 .20298788 4.938532 .60896369 C 3.9584196 1.0149394 3.0932909 1.593 2.3431457 2.3431457 C 1.593 3.0932909 1.0149394 3.9584196 .60896369 4.938532 C .20298788 5.9186446 0 6.9391338 0 8 Z "/></g><clipPath id="cp14"><path d="M 1101 323 L 1289 323 L 1289 361 L 1101 361 Z " fill-rule="evenodd"/></clipPath><g clip-path="url(#cp14)"><text xml:space="preserve" transform="matrix(1 0 0 1 1101 323)" font-size="28" ><tspan y="30" x="0 18 25 32 48 55 62 78 94 101 117 133 149 156 172">&#x0421;. &#x043e;. +3 &#x0438;&#x043b;&#x0438; +4</tspan></text></g><clipPath id="cp15"><path d="M 0 0 L 1601 0 L 1601 599 L 0 599 Z " fill-rule="evenodd"/></clipPath><g clip-path="url(#cp15)"><path transform="matrix(1,0,0,1,1341,315)" stroke-width="2" stroke-linecap="butt" stroke-miterlimit="4" stroke-linejoin="miter" fill="none" stroke="#2e0000" d="M 0 8 L 0 48 C 0 49.060865 .20298788 50.08135 .60896369 51.06146 C 1.0149394 52.041574 1.593 52.9067 2.3431457 53.65685 C 3.0932909 54.406995 3.9584196 54.985055 4.938532 55.39103 C 5.9186446 55.797006 6.9391338 55.999998 8 56 L 216 56 C 217.06085 55.999998 218.08133 55.797006 219.06145 55.39103 C 220.04154 54.985055 220.90666 54.406995 221.65683 53.65685 C 222.40697 52.9067 222.98502 52.041574 223.39099 51.06146 C 223.79698 50.08135 223.99999 49.060865 224 48 L 224 8 C 223.99999 6.9391338 223.79698 5.9186446 223.39099 4.938532 C 222.98502 3.9584196 222.40697 3.0932909 221.65683 2.3431457 C 220.90666 1.593 220.04154 1.0149394 219.06143 .60896369 C 218.08133 .20298788 217.06085 0 216 0 L 8 0 C 6.9391338 0 5.9186446 .20298788 4.938532 .60896369 C 3.9584196 1.0149394 3.0932909 1.593 2.3431457 2.3431457 C 1.593 3.0932909 1.0149394 3.9584196 .60896369 4.938532 C .20298788 5.9186446 0 6.9391338 0 8 Z "/></g><clipPath id="cp16"><path d="M 1353 323 L 1553 323 L 1553 361 L 1353 361 Z " fill-rule="evenodd"/></clipPath><g clip-path="url(#cp16)"><text xml:space="preserve" transform="matrix(1 0 0 1 1353 323)" font-size="28" ><tspan y="30" x="0 18 25 32 48 55 62 78 94 101 117 124 140 162 185">&#x0421;. &#x043e;. +5 &#x0438; &#x0432;&#x044b;&#x0448;&#x0435;</tspan></text></g><clipPath id="cp17"><path d="M 0 0 L 1601 0 L 1601 599 L 0 599 Z " fill-rule="evenodd"/></clipPath><g clip-path="url(#cp17)"><path transform="matrix(1,0,0,1,36,411)" d="M 0 8 L 0 48 C 0 49.060865 .20298788 50.08135 .60896369 51.06146 C 1.0149394 52.041574 1.593 52.9067 2.3431457 53.65685 C 3.0932909 54.406995 3.9584196 54.985055 4.938532 55.39103 C 5.9186446 55.797006 6.9391338 55.999998 8 56 L 279 56 C 280.06086 55.999998 281.08134 55.797006 282.06144 55.39103 C 283.04158 54.985055 283.90669 54.406995 284.65684 53.65685 C 285.40696 52.9067 285.98503 52.041574 286.391 51.06146 C 286.79698 50.08135 286.99998 49.060865 287 48 L 287 8 C 286.99998 6.9391338 286.79698 5.9186446 286.391 4.938532 C 285.98503 3.9584196 285.40696 3.0932909 284.65684 2.3431457 C 283.90669 1.593 283.04158 1.0149394 282.06144 .60896369 C 281.08134 .20298788 280.06086 0 279 0 L 8 0 C 6.9391338 0 5.9186446 .20298788 4.938532 .60896369 C 3.9584196 1.0149394 3.0932909 1.593 2.3431457 2.3431457 C 1.593 3.0932909 1.0149394 3.9584196 .60896369 4.938532 C .20298788 5.9186446 0 6.9391338 0 8 Z " fill="#ffdada"/><path transform="matrix(1,0,0,1,36,411)" stroke-width="2" stroke-linecap="butt" stroke-miterlimit="4" stroke-linejoin="miter" fill="none" stroke="#ffdada" d="M 0 8 L 0 48 C 0 49.060865 .20298788 50.08135 .60896369 51.06146 C 1.0149394 52.041574 1.593 52.9067 2.3431457 53.65685 C 3.0932909 54.406995 3.9584196 54.985055 4.938532 55.39103 C 5.9186446 55.797006 6.9391338 55.999998 8 56 L 279 56 C 280.06086 55.999998 281.08134 55.797006 282.06144 55.39103 C 283.04158 54.985055 283.90669 54.406995 284.65684 53.65685 C 285.40696 52.9067 285.98503 52.041574 286.391 51.06146 C 286.79698 50.08135 286.99998 49.060865 287 48 L 287 8 C 286.99998 6.9391338 286.79698 5.9186446 286.391 4.938532 C 285.98503 3.9584196 285.40696 3.0932909 284.65684 2.3431457 C 283.90669 1.593 283.04158 1.0149394 282.06144 .60896369 C 281.08134 .20298788 280.06086 0 279 0 L 8 0 C 6.9391338 0 5.9186446 .20298788 4.938532 .60896369 C 3.9584196 1.0149394 3.0932909 1.593 2.3431457 2.3431457 C 1.593 3.0932909 1.0149394 3.9584196 .60896369 4.938532 C .20298788 5.9186446 0 6.9391338 0 8 Z "/></g><clipPath id="cp18"><path d="M 48 419 L 311 419 L 311 457 L 48 457 Z " fill-rule="evenodd"/></clipPath><g clip-path="url(#cp18)"><text xml:space="preserve" transform="matrix(1 0 0 1 48 419)" font-size="28" ><tspan y="30" x="0 20 35 50 65.78125 81.78125 96.78125 112.78125 127.546878 143.54688 158.54688 172.54688 185.54688 208.54688 231.54688 247.54688">&#x041d;&#x0435;&#x0441;&#x043e;&#x043b;&#x0435;&#x043e;&#x0431;&#x0440;&#x0430;&#x0437;&#x0443;&#x044e;&#x0449;&#x0438;&#x0435;</tspan></text></g><clipPath id="cp19"><path d="M 0 0 L 1601 0 L 1601 599 L 0 599 Z " fill-rule="evenodd"/></clipPath><g clip-path="url(#cp19)"><path transform="matrix(1,0,0,1,363,411)" d="M 0 8 L 0 48 C 0 49.060865 .20298788 50.08135 .60896369 51.06146 C 1.0149394 52.041574 1.593 52.9067 2.3431457 53.65685 C 3.0932909 54.406995 3.9584196 54.985055 4.938532 55.39103 C 5.9186446 55.797006 6.9391338 55.999998 8 56 L 163 56 C 164.06085 55.999998 165.08133 55.797006 166.06145 55.39103 C 167.04157 54.985055 167.9067 54.406995 168.65685 53.65685 C 169.40699 52.9067 169.98505 52.041574 170.39102 51.06146 C 170.797 50.08135 170.99999 49.060865 171 48 L 171 8 C 170.99999 6.9391338 170.797 5.9186446 170.39102 4.938532 C 169.98505 3.9584196 169.40699 3.0932909 168.65685 2.3431457 C 167.9067 1.593 167.04157 1.0149394 166.06145 .60896369 C 165.08133 .20298788 164.06085 0 163 0 L 8 0 C 6.9391338 0 5.9186446 .20298788 4.938532 .60896369 C 3.9584196 1.0149394 3.0932909 1.593 2.3431457 2.3431457 C 1.593 3.0932909 1.0149394 3.9584196 .60896369 4.938532 C .20298788 5.9186446 0 6.9391338 0 8 Z " fill="#ffdada"/><path transform="matrix(1,0,0,1,363,411)" stroke-width="2" stroke-linecap="butt" stroke-miterlimit="4" stroke-linejoin="miter" fill="none" stroke="#ffdada" d="M 0 8 L 0 48 C 0 49.060865 .20298788 50.08135 .60896369 51.06146 C 1.0149394 52.041574 1.593 52.9067 2.3431457 53.65685 C 3.0932909 54.406995 3.9584196 54.985055 4.938532 55.39103 C 5.9186446 55.797006 6.9391338 55.999998 8 56 L 163 56 C 164.06085 55.999998 165.08133 55.797006 166.06145 55.39103 C 167.04157 54.985055 167.9067 54.406995 168.65685 53.65685 C 169.40699 52.9067 169.98505 52.041574 170.39102 51.06146 C 170.797 50.08135 170.99999 49.060865 171 48 L 171 8 C 170.99999 6.9391338 170.797 5.9186446 170.39102 4.938532 C 169.98505 3.9584196 169.40699 3.0932909 168.65685 2.3431457 C 167.9067 1.593 167.04157 1.0149394 166.06145 .60896369 C 165.08133 .20298788 164.06085 0 163 0 L 8 0 C 6.9391338 0 5.9186446 .20298788 4.938532 .60896369 C 3.9584196 1.0149394 3.0932909 1.593 2.3431457 2.3431457 C 1.593 3.0932909 1.0149394 3.9584196 .60896369 4.938532 C .20298788 5.9186446 0 6.9391338 0 8 Z "/></g><clipPath id="cp20"><path d="M 375 419 L 522 419 L 522 457 L 375 457 Z " fill-rule="evenodd"/></clipPath><g clip-path="url(#cp20)"><text xml:space="preserve" transform="matrix(1 0 0 1 375 419)" font-size="28" ><tspan y="30" x="0 17.683594 33.683595 48.683595 64.68359 80.38281 93.38281 109.38281 131.38282">&#x041a;&#x0438;&#x0441;&#x043b;&#x043e;&#x0442;&#x043d;&#x044b;&#x0435;</tspan></text></g><clipPath id="cp21"><path d="M 0 0 L 1601 0 L 1601 599 L 0 599 Z " fill-rule="evenodd"/></clipPath><g clip-path="url(#cp21)"><path transform="matrix(1,0,0,1,574,411)" stroke-width="2" stroke-linecap="butt" stroke-miterlimit="4" stroke-linejoin="miter" fill="none" stroke="#2e0000" d="M 0 8 L 0 48 C 0 49.060865 .20298788 50.08135 .60896369 51.06146 C 1.0149394 52.041574 1.593 52.9067 2.3431457 53.65685 C 3.0932909 54.406995 3.9584196 54.985055 4.938532 55.39103 C 5.9186446 55.797006 6.9391338 55.999998 8 56 L 257 56 C 258.06086 55.999998 259.08134 55.797006 260.06144 55.39103 C 261.04154 54.985055 261.90669 54.406995 262.65684 53.65685 C 263.40699 52.9067 263.98506 52.041574 264.39103 51.06146 C 264.797 50.08135 264.99998 49.060865 265 48 L 265 8 C 264.99998 6.9391338 264.797 5.9186446 264.39103 4.938532 C 263.98506 3.9584196 263.40699 3.0932909 262.65684 2.3431457 C 261.90669 1.593 261.04154 1.0149394 260.06144 .60896369 C 259.08134 .20298788 258.06086 0 257 0 L 8 0 C 6.9391338 0 5.9186446 .20298788 4.938532 .60896369 C 3.9584196 1.0149394 3.0932909 1.593 2.3431457 2.3431457 C 1.593 3.0932909 1.0149394 3.9584196 .60896369 4.938532 C .20298788 5.9186446 0 6.9391338 0 8 Z "/></g><clipPath id="cp22"><path d="M 586 419 L 827 419 L 827 457 L 586 457 Z " fill-rule="evenodd"/></clipPath><g clip-path="url(#cp22)"><text xml:space="preserve" transform="matrix(1 0 0 1 586 419)" font-size="28" ><tspan y="30" x="0 17 32 49.60547 55.60547 62.60547 79.60547 94.60547 112.21094 118.21094 125.21094 143.21094 159.21094 176.8164 182.8164 189.8164 206.8164 221.8164">ZnO, BeO, PbO, SnO</tspan></text></g><clipPath id="cp23"><path d="M 0 0 L 1601 0 L 1601 599 L 0 599 Z " fill-rule="evenodd"/></clipPath><g clip-path="url(#cp23)"><path transform="matrix(1,0,0,1,879,411)" stroke-width="2" stroke-linecap="butt" stroke-miterlimit="4" stroke-linejoin="miter" fill="none" stroke="#2e0000" d="M 0 8 L 0 48 C 0 49.060865 .20298788 50.08135 .60896369 51.06146 C 1.0149394 52.041574 1.593 52.9067 2.3431457 53.65685 C 3.0932909 54.406995 3.9584196 54.985055 4.938532 55.39103 C 5.9186446 55.797006 6.9391338 55.999998 8 56 L 162 56 C 163.06085 55.999998 164.08133 55.797006 165.06145 55.39103 C 166.04155 54.985055 166.90668 54.406995 167.65685 53.65685 C 168.40699 52.9067 168.98505 52.041574 169.39102 51.06146 C 169.797 50.08135 169.99999 49.060865 170 48 L 170 8 C 169.99999 6.9391338 169.797 5.9186446 169.39102 4.938532 C 168.98505 3.9584196 168.40699 3.0932909 167.65685 2.3431457 C 166.90668 1.593 166.04155 1.0149394 165.06145 .60896369 C 164.08133 .20298788 163.06085 0 162 0 L 8 0 C 6.9391338 0 5.9186446 .20298788 4.938532 .60896369 C 3.9584196 1.0149394 3.0932909 1.593 2.3431457 2.3431457 C 1.593 3.0932909 1.0149394 3.9584196 .60896369 4.938532 C .20298788 5.9186446 0 6.9391338 0 8 Z "/></g><clipPath id="cp24"><path d="M 891 419 L 1037 419 L 1037 457 L 891 457 Z " fill-rule="evenodd"/></clipPath><g clip-path="url(#cp24)"><text xml:space="preserve" transform="matrix(1 0 0 1 891 419)" font-size="28" ><tspan y="30" x="0 19 34 46.78125 61.78125 77.78125 92.78125 108.78125 130.78125">&#x041e;&#x0441;&#x0442;&#x0430;&#x043b;&#x044c;&#x043d;&#x044b;&#x0435;</tspan></text></g><clipPath id="cp25"><path d="M 0 0 L 1601 0 L 1601 599 L 0 599 Z " fill-rule="evenodd"/></clipPath><g clip-path="url(#cp25)"><path transform="matrix(1,0,0,1,1098,411)" d="M 0 8 L 0 48 C 0 49.060865 .20298788 50.08135 .60896369 51.06146 C 1.0149394 52.041574 1.593 52.9067 2.3431457 53.65685 C 3.0932909 54.406995 3.9584196 54.985055 4.938532 55.39103 C 5.9186446 55.797006 6.9391338 55.999998 8 56 L 187 56 C 188.06085 55.999998 189.08133 55.797006 190.06143 55.39103 C 191.04155 54.985055 191.90668 54.406995 192.65683 53.65685 C 193.40697 52.9067 193.98502 52.041574 194.391 51.06146 C 194.79698 50.08135 194.99999 49.060865 195 48 L 195 8 C 194.99999 6.9391338 194.79698 5.9186446 194.391 4.938532 C 193.98502 3.9584196 193.40697 3.0932909 192.65683 2.3431457 C 191.90668 1.593 191.04155 1.0149394 190.06143 .60896369 C 189.08133 .20298788 188.06085 0 187 0 L 8 0 C 6.9391338 0 5.9186446 .20298788 4.938532 .60896369 C 3.9584196 1.0149394 3.0932909 1.593 2.3431457 2.3431457 C 1.593 3.0932909 1.0149394 3.9584196 .60896369 4.938532 C .20298788 5.9186446 0 6.9391338 0 8 Z " fill="#ffdada"/><path transform="matrix(1,0,0,1,1098,411)" stroke-width="2" stroke-linecap="butt" stroke-miterlimit="4" stroke-linejoin="miter" fill="none" stroke="#ffdada" d="M 0 8 L 0 48 C 0 49.060865 .20298788 50.08135 .60896369 51.06146 C 1.0149394 52.041574 1.593 52.9067 2.3431457 53.65685 C 3.0932909 54.406995 3.9584196 54.985055 4.938532 55.39103 C 5.9186446 55.797006 6.9391338 55.999998 8 56 L 187 56 C 188.06085 55.999998 189.08133 55.797006 190.06143 55.39103 C 191.04155 54.985055 191.90668 54.406995 192.65683 53.65685 C 193.40697 52.9067 193.98502 52.041574 194.391 51.06146 C 194.79698 50.08135 194.99999 49.060865 195 48 L 195 8 C 194.99999 6.9391338 194.79698 5.9186446 194.391 4.938532 C 193.98502 3.9584196 193.40697 3.0932909 192.65683 2.3431457 C 191.90668 1.593 191.04155 1.0149394 190.06143 .60896369 C 189.08133 .20298788 188.06085 0 187 0 L 8 0 C 6.9391338 0 5.9186446 .20298788 4.938532 .60896369 C 3.9584196 1.0149394 3.0932909 1.593 2.3431457 2.3431457 C 1.593 3.0932909 1.0149394 3.9584196 .60896369 4.938532 C .20298788 5.9186446 0 6.9391338 0 8 Z "/></g><clipPath id="cp26"><path d="M 1110 419 L 1281 419 L 1281 457 L 1110 457 Z " fill-rule="evenodd"/></clipPath><g clip-path="url(#cp26)"><text xml:space="preserve" transform="matrix(1 0 0 1 1110 419)" font-size="28" ><tspan y="30" x="0 18 39 59 74.69922 86.60547 101.60547 117.60547 133.60547 155.60547">&#x0410;&#x043c;&#x0444;&#x043e;&#x0442;&#x0435;&#x0440;&#x043d;&#x044b;&#x0435;</tspan></text></g><clipPath id="cp27"><path d="M 0 0 L 1601 0 L 1601 599 L 0 599 Z " fill-rule="evenodd"/></clipPath><g clip-path="url(#cp27)"><path transform="matrix(1,0,0,1,1368,411)" d="M 0 8 L 0 48 C 0 49.060865 .20298788 50.08135 .60896369 51.06146 C 1.0149394 52.041574 1.593 52.9067 2.3431457 53.65685 C 3.0932909 54.406995 3.9584196 54.985055 4.938532 55.39103 C 5.9186446 55.797006 6.9391338 55.999998 8 56 L 163 56 C 164.06085 55.999998 165.08133 55.797006 166.06145 55.39103 C 167.04157 54.985055 167.9067 54.406995 168.65685 53.65685 C 169.40699 52.9067 169.98505 52.041574 170.39102 51.06146 C 170.797 50.08135 170.99999 49.060865 171 48 L 171 8 C 170.99999 6.9391338 170.797 5.9186446 170.39102 4.938532 C 169.98505 3.9584196 169.40699 3.0932909 168.65685 2.3431457 C 167.9067 1.593 167.04157 1.0149394 166.06145 .60896369 C 165.08133 .20298788 164.06085 0 163 0 L 8 0 C 6.9391338 0 5.9186446 .20298788 4.938532 .60896369 C 3.9584196 1.0149394 3.0932909 1.593 2.3431457 2.3431457 C 1.593 3.0932909 1.0149394 3.9584196 .60896369 4.938532 C .20298788 5.9186446 0 6.9391338 0 8 Z " fill="#ffdada"/><path transform="matrix(1,0,0,1,1368,411)" stroke-width="2" stroke-linecap="butt" stroke-miterlimit="4" stroke-linejoin="miter" fill="none" stroke="#ffdada" d="M 0 8 L 0 48 C 0 49.060865 .20298788 50.08135 .60896369 51.06146 C 1.0149394 52.041574 1.593 52.9067 2.3431457 53.65685 C 3.0932909 54.406995 3.9584196 54.985055 4.938532 55.39103 C 5.9186446 55.797006 6.9391338 55.999998 8 56 L 163 56 C 164.06085 55.999998 165.08133 55.797006 166.06145 55.39103 C 167.04157 54.985055 167.9067 54.406995 168.65685 53.65685 C 169.40699 52.9067 169.98505 52.041574 170.39102 51.06146 C 170.797 50.08135 170.99999 49.060865 171 48 L 171 8 C 170.99999 6.9391338 170.797 5.9186446 170.39102 4.938532 C 169.98505 3.9584196 169.40699 3.0932909 168.65685 2.3431457 C 167.9067 1.593 167.04157 1.0149394 166.06145 .60896369 C 165.08133 .20298788 164.06085 0 163 0 L 8 0 C 6.9391338 0 5.9186446 .20298788 4.938532 .60896369 C 3.9584196 1.0149394 3.0932909 1.593 2.3431457 2.3431457 C 1.593 3.0932909 1.0149394 3.9584196 .60896369 4.938532 C .20298788 5.9186446 0 6.9391338 0 8 Z "/></g><clipPath id="cp28"><path d="M 1380 419 L 1527 419 L 1527 457 L 1380 457 Z " fill-rule="evenodd"/></clipPath><g clip-path="url(#cp28)"><text xml:space="preserve" transform="matrix(1 0 0 1 1380 419)" font-size="28" ><tspan y="30" x="0 17.683594 33.683595 48.683595 64.68359 80.38281 93.38281 109.38281 131.38282">&#x041a;&#x0438;&#x0441;&#x043b;&#x043e;&#x0442;&#x043d;&#x044b;&#x0435;</tspan></text></g><clipPath id="cp29"><path d="M 0 0 L 1601 0 L 1601 599 L 0 599 Z " fill-rule="evenodd"/></clipPath><g clip-path="url(#cp29)"><path transform="matrix(1,0,0,1,610,507)" d="M 0 8 L 0 48 C 0 49.060865 .20298788 50.08135 .60896369 51.06146 C 1.0149394 52.041574 1.593 52.9067 2.3431457 53.65685 C 3.0932909 54.406995 3.9584196 54.985055 4.938532 55.39103 C 5.9186446 55.797006 6.9391338 55.999998 8 56 L 187 56 C 188.06085 55.999998 189.08133 55.797006 190.06143 55.39103 C 191.04155 54.985055 191.90668 54.406995 192.65683 53.65685 C 193.40697 52.9067 193.98502 52.041574 194.391 51.06146 C 194.79698 50.08135 194.99999 49.060865 195 48 L 195 8 C 194.99999 6.9391338 194.79698 5.9186446 194.391 4.938532 C 193.98502 3.9584196 193.40697 3.0932909 192.65683 2.3431457 C 191.90668 1.593 191.04155 1.0149394 190.06143 .60896369 C 189.08133 .20298788 188.06085 0 187 0 L 8 0 C 6.9391338 0 5.9186446 .20298788 4.938532 .60896369 C 3.9584196 1.0149394 3.0932909 1.593 2.3431457 2.3431457 C 1.593 3.0932909 1.0149394 3.9584196 .60896369 4.938532 C .20298788 5.9186446 0 6.9391338 0 8 Z " fill="#ffdada"/><path transform="matrix(1,0,0,1,610,507)" stroke-width="2" stroke-linecap="butt" stroke-miterlimit="4" stroke-linejoin="miter" fill="none" stroke="#ffdada" d="M 0 8 L 0 48 C 0 49.060865 .20298788 50.08135 .60896369 51.06146 C 1.0149394 52.041574 1.593 52.9067 2.3431457 53.65685 C 3.0932909 54.406995 3.9584196 54.985055 4.938532 55.39103 C 5.9186446 55.797006 6.9391338 55.999998 8 56 L 187 56 C 188.06085 55.999998 189.08133 55.797006 190.06143 55.39103 C 191.04155 54.985055 191.90668 54.406995 192.65683 53.65685 C 193.40697 52.9067 193.98502 52.041574 194.391 51.06146 C 194.79698 50.08135 194.99999 49.060865 195 48 L 195 8 C 194.99999 6.9391338 194.79698 5.9186446 194.391 4.938532 C 193.98502 3.9584196 193.40697 3.0932909 192.65683 2.3431457 C 191.90668 1.593 191.04155 1.0149394 190.06143 .60896369 C 189.08133 .20298788 188.06085 0 187 0 L 8 0 C 6.9391338 0 5.9186446 .20298788 4.938532 .60896369 C 3.9584196 1.0149394 3.0932909 1.593 2.3431457 2.3431457 C 1.593 3.0932909 1.0149394 3.9584196 .60896369 4.938532 C .20298788 5.9186446 0 6.9391338 0 8 Z "/></g><clipPath id="cp30"><path d="M 622 515 L 793 515 L 793 553 L 622 553 Z " fill-rule="evenodd"/></clipPath><g clip-path="url(#cp30)"><text xml:space="preserve" transform="matrix(1 0 0 1 622 515)" font-size="28" ><tspan y="30" x="0 18 39 59 74.69922 86.60547 101.60547 117.60547 133.60547 155.60547">&#x0410;&#x043c;&#x0444;&#x043e;&#x0442;&#x0435;&#x0440;&#x043d;&#x044b;&#x0435;</tspan></text></g><clipPath id="cp31"><path d="M 0 0 L 1601 0 L 1601 599 L 0 599 Z " fill-rule="evenodd"/></clipPath><g clip-path="url(#cp31)"><path transform="matrix(1,0,0,1,885,507)" d="M 0 8 L 0 48 C 0 49.060865 .20298788 50.08135 .60896369 51.06146 C 1.0149394 52.041574 1.593 52.9067 2.3431457 53.65685 C 3.0932909 54.406995 3.9584196 54.985055 4.938532 55.39103 C 5.9186446 55.797006 6.9391338 55.999998 8 56 L 151 56 C 152.06085 55.999998 153.08133 55.797006 154.06145 55.39103 C 155.04157 54.985055 155.9067 54.406995 156.65686 53.65685 C 157.407 52.9067 157.98505 52.041574 158.39102 51.06146 C 158.797 50.08135 158.99999 49.060865 159 48 L 159 8 C 158.99999 6.9391338 158.797 5.9186446 158.39102 4.938532 C 157.98505 3.9584196 157.407 3.0932909 156.65686 2.3431457 C 155.9067 1.593 155.04157 1.0149394 154.06145 .60896369 C 153.08133 .20298788 152.06085 0 151 0 L 8 0 C 6.9391338 0 5.9186446 .20298788 4.938532 .60896369 C 3.9584196 1.0149394 3.0932909 1.593 2.3431457 2.3431457 C 1.593 3.0932909 1.0149394 3.9584196 .60896369 4.938532 C .20298788 5.9186446 0 6.9391338 0 8 Z " fill="#ffdada"/><path transform="matrix(1,0,0,1,885,507)" stroke-width="2" stroke-linecap="butt" stroke-miterlimit="4" stroke-linejoin="miter" fill="none" stroke="#ffdada" d="M 0 8 L 0 48 C 0 49.060865 .20298788 50.08135 .60896369 51.06146 C 1.0149394 52.041574 1.593 52.9067 2.3431457 53.65685 C 3.0932909 54.406995 3.9584196 54.985055 4.938532 55.39103 C 5.9186446 55.797006 6.9391338 55.999998 8 56 L 151 56 C 152.06085 55.999998 153.08133 55.797006 154.06145 55.39103 C 155.04157 54.985055 155.9067 54.406995 156.65686 53.65685 C 157.407 52.9067 157.98505 52.041574 158.39102 51.06146 C 158.797 50.08135 158.99999 49.060865 159 48 L 159 8 C 158.99999 6.9391338 158.797 5.9186446 158.39102 4.938532 C 157.98505 3.9584196 157.407 3.0932909 156.65686 2.3431457 C 155.9067 1.593 155.04157 1.0149394 154.06145 .60896369 C 153.08133 .20298788 152.06085 0 151 0 L 8 0 C 6.9391338 0 5.9186446 .20298788 4.938532 .60896369 C 3.9584196 1.0149394 3.0932909 1.593 2.3431457 2.3431457 C 1.593 3.0932909 1.0149394 3.9584196 .60896369 4.938532 C .20298788 5.9186446 0 6.9391338 0 8 Z "/></g><clipPath id="cp32"><path d="M 897 515 L 1032 515 L 1032 553 L 897 553 Z " fill-rule="evenodd"/></clipPath><g clip-path="url(#cp32)"><text xml:space="preserve" transform="matrix(1 0 0 1 897 515)" font-size="28" ><tspan y="30" x="0 19 34 50 66 82 98 120">&#x041e;&#x0441;&#x043d;&#x043e;&#x0432;&#x043d;&#x044b;&#x0435;</tspan></text></g></g></g></svg>
