<?xml version="1.0" encoding="UTF-8"?>
<svg xmlns="http://www.w3.org/2000/svg" xmlns:xlink="http://www.w3.org/1999/xlink" width="15px" height="15px" viewBox="0 0 15 15" version="1.1">
<g id="surface1">
<path style=" stroke:none;fill-rule:nonzero;fill:rgb(0%,0%,0%);fill-opacity:1;" d="M 4.4375 9.65625 L 5.109375 8.484375 C 4.621094 8.484375 4.1875 8.289062 3.8125 7.902344 C 3.4375 7.511719 3.25 7.046875 3.25 6.5 C 3.25 5.9375 3.441406 5.464844 3.828125 5.078125 C 4.214844 4.691406 4.6875 4.5 5.25 4.5 C 5.8125 4.5 6.285156 4.691406 6.671875 5.078125 C 7.058594 5.464844 7.25 5.9375 7.25 6.5 C 7.25 6.65625 7.226562 6.816406 7.179688 6.976562 C 7.132812 7.136719 7.0625 7.308594 6.96875 7.484375 L 5.40625 10.21875 C 5.359375 10.304688 5.292969 10.371094 5.207031 10.421875 C 5.121094 10.472656 5.027344 10.5 4.921875 10.5 C 4.703125 10.5 4.539062 10.40625 4.429688 10.21875 C 4.320312 10.03125 4.324219 9.84375 4.4375 9.65625 Z M 8.9375 9.65625 L 9.609375 8.484375 C 9.121094 8.484375 8.6875 8.289062 8.3125 7.902344 C 7.9375 7.511719 7.75 7.046875 7.75 6.5 C 7.75 5.9375 7.941406 5.464844 8.328125 5.078125 C 8.714844 4.691406 9.1875 4.5 9.75 4.5 C 10.3125 4.5 10.785156 4.691406 11.171875 5.078125 C 11.558594 5.464844 11.75 5.9375 11.75 6.5 C 11.75 6.675781 11.726562 6.847656 11.679688 7.015625 C 11.632812 7.183594 11.566406 7.339844 11.484375 7.484375 L 9.90625 10.21875 C 9.859375 10.304688 9.792969 10.371094 9.707031 10.421875 C 9.621094 10.472656 9.527344 10.5 9.421875 10.5 C 9.203125 10.5 9.039062 10.40625 8.929688 10.21875 C 8.820312 10.03125 8.824219 9.84375 8.9375 9.65625 Z M 5.246094 7.375 C 5.488281 7.375 5.695312 7.289062 5.867188 7.121094 C 6.039062 6.953125 6.125 6.746094 6.125 6.503906 C 6.125 6.261719 6.039062 6.054688 5.871094 5.882812 C 5.703125 5.710938 5.496094 5.625 5.253906 5.625 C 5.011719 5.625 4.804688 5.710938 4.632812 5.878906 C 4.460938 6.046875 4.375 6.253906 4.375 6.496094 C 4.375 6.738281 4.460938 6.945312 4.628906 7.117188 C 4.796875 7.289062 5.003906 7.375 5.246094 7.375 Z M 9.746094 7.375 C 9.988281 7.375 10.195312 7.289062 10.367188 7.121094 C 10.539062 6.953125 10.625 6.746094 10.625 6.503906 C 10.625 6.261719 10.539062 6.054688 10.371094 5.882812 C 10.203125 5.710938 9.996094 5.625 9.753906 5.625 C 9.511719 5.625 9.304688 5.710938 9.132812 5.878906 C 8.960938 6.046875 8.875 6.253906 8.875 6.496094 C 8.875 6.738281 8.960938 6.945312 9.128906 7.117188 C 9.296875 7.289062 9.503906 7.375 9.746094 7.375 Z M 9.75 6.5 Z M 5.25 6.5 Z M 5.25 6.5 "/>
</g>
</svg>
