<svg xmlns="http://www.w3.org/2000/svg" xmlns:xlink="http://www.w3.org/1999/xlink" version="1.1" width="214" height="152" viewBox="0 0 214 152">
<defs>
<clipPath id="clip_0">
<path d="M0 0H214V152H0Z" fill-rule="evenodd"/>
</clipPath>
</defs>
<g clip-path="url(#clip_0)">
<path transform="matrix(.25,0,0,.25,0,0)" stroke-width="4" stroke-linecap="round" stroke-linejoin="round" fill="none" stroke="#000000" d="M246.5266 40V112H606.5266V40H246.5266"/>
<text xml:space="preserve" transform="matrix(.25 0 0 .25 66.50665 13.875)" font-size="30" font-family="RobotoStatic"><tspan y="32" x="0 21 37 50.38672 67.38672 83.38672 100.38672 117.38672 133.38672 150.38672 157.38672 174.38672 190.38672 207.38672 224.16797 238.16797 254.16797 270.16798 287.16798 304.16798">&#x0418;&#x0441;&#x0442;&#x043e;&#x0447;&#x043d;&#x0438;&#x043a;&#x0438; &#x0432;&#x0435;&#x0440;&#x043e;&#x0443;&#x0447;&#x0435;&#x043d;&#x0438;&#x044f;</tspan></text>
<path transform="matrix(.25,0,0,.25,0,0)" stroke-width="4" stroke-linecap="round" stroke-linejoin="round" fill="none" stroke="#000000" d="M426.52723 111.99957 225.01395 228.34436"/>
<path transform="matrix(.25,0,0,.25,0,0)" d="M248.83446 229.6026 235.83438 207.08594 225.01395 228.34436 248.83446 229.6026Z"/>
<path transform="matrix(.25,0,0,.25,0,0)" stroke-width="4" stroke-linecap="round" stroke-linejoin="round" fill="none" stroke="#000000" d="M248.83446 229.6026 235.83438 207.08594 225.01395 228.34436 248.83446 229.6026Z"/>
<path transform="matrix(.25,0,0,.25,0,0)" stroke-width="4" stroke-linecap="round" stroke-linejoin="round" fill="none" stroke="#000000" d="M426.52577 112 628.0395 228.34406"/>
<path transform="matrix(.25,0,0,.25,0,0)" d="M617.219 207.0857 604.219 229.60236 628.0395 228.34406 617.219 207.0857Z"/>
<path transform="matrix(.25,0,0,.25,0,0)" stroke-width="4" stroke-linecap="round" stroke-linejoin="round" fill="none" stroke="#000000" d="M617.219 207.0857 604.219 229.60236 628.0395 228.34406 617.219 207.0857Z"/>
<path transform="matrix(.25,0,0,.25,0,0)" stroke-width="4" stroke-linecap="round" stroke-linejoin="round" fill="none" stroke="#000000" d="M41 245.3963V343.9997H402.51405V245.3963H41"/>
<text xml:space="preserve" transform="matrix(.25 0 0 .25 17.689253 64.1745)" font-size="30" font-family="RobotoStatic"><tspan y="32" x="7 27 44 60 85.17578 101.17578 118.17578 135.17578 152.17578 168.17578 175.17578 196.17578 213.17578 229.17578 245.17578 262.17579 279.17579">&#x0421;&#x0432;&#x044f;&#x0449;&#x0435;&#x043d;&#x043d;&#x043e;&#x0435; &#x041f;&#x0438;&#x0441;&#x0430;&#x043d;&#x0438;&#x0435;</tspan></text>
<text xml:space="preserve" transform="matrix(.25 0 0 .25 17.689253 64.1745)" font-size="30" font-family="RobotoStatic"><tspan y="67" x="37 47 67 84 100 113.765628 129.76563 145.76563 152.76563 171.76563 188.76563 205.76563 222.76563 239.76563 255.76563">(&#x0421;&#x0432;&#x044f;&#x0442;&#x0430;&#x044f; &#x0411;&#x0438;&#x0431;&#x043b;&#x0438;&#x044f;)</tspan></text>
<path transform="matrix(.25,0,0,.25,0,0)" stroke-width="4" stroke-linecap="round" stroke-linejoin="round" fill="none" stroke="#000000" d="M447.28163 245.3963V343.9997H808.79568V245.3963H447.28163"/>
<text xml:space="preserve" transform="matrix(.25 0 0 .25 117.00966 64.1745)" font-size="30" font-family="RobotoStatic"><tspan y="32" x="7 27 44 60 85.17578 101.17578 118.17578 135.17578 152.17578 168.17578 175.17578 196.17578 213.17578 229.17578 247.17578 263.17579 280.17579 297.17579">&#x0421;&#x0432;&#x044f;&#x0449;&#x0435;&#x043d;&#x043d;&#x043e;&#x0435; &#x041f;&#x0440;&#x0435;&#x0434;&#x0430;&#x043d;&#x0438;&#x0435;</tspan></text>
<text xml:space="preserve" transform="matrix(.25 0 0 .25 117.00966 64.1745)" font-size="30" font-family="RobotoStatic"><tspan y="67" x="33 43 61 77 94 109.69141 126.69141 143.6914 160.6914 183.6914 200.6914 207.6914 224.6914 241.6914 264.6914 278.6914">(&#x0446;&#x0435;&#x0440;&#x043a;&#x043e;&#x0432;&#x043d;&#x044b;&#x0439; &#x043e;&#x043f;&#x044b;&#x0442;)</tspan></text>
<text xml:space="preserve" transform="matrix(.25 0 0 .25 13.628719 89.125)" font-size="28" font-family="RobotoStatic"><tspan y="30" x="0 16 32 39 54 70 86 98">77 &#x043a;&#x043d;&#x0438;&#x0433;:</tspan></text>
<text xml:space="preserve" transform="matrix(.25 0 0 .25 13.628719 89.125)" font-size="28" font-family="RobotoStatic"><tspan y="63" x="0 9 16 32 48 55 70 85 101 117 133 149 164 179 194 209 225 239 246 261 277 293 305">&#x2022; 66 &#x043a;&#x0430;&#x043d;&#x043e;&#x043d;&#x0438;&#x0447;&#x0435;&#x0441;&#x043a;&#x0438;&#x0445; &#x043a;&#x043d;&#x0438;&#x0433;,</tspan></text>
<text xml:space="preserve" transform="matrix(.25 0 0 .25 13.628719 89.125)" font-size="28" font-family="RobotoStatic"><tspan y="96" x="0 16 32 39 55 70 85 100 116 132 148 164 179 194 209 224 240 254 261 276 292 308">11 &#x043d;&#x0435;&#x043a;&#x0430;&#x043d;&#x043e;&#x043d;&#x0438;&#x0447;&#x0435;&#x0441;&#x043a;&#x0438;&#x0445; &#x043a;&#x043d;&#x0438;&#x0433;</tspan></text>
<text xml:space="preserve" transform="matrix(.25 0 0 .25 13.628719 89.125)" font-size="28" font-family="RobotoStatic"><tspan y="129" x="0 9 16 32 48 55 70 86 102 114 121 138 152.85157 165.85157 179.57813 195.57813 207.30469 223.30469 230.30469 247.30469 262.3047 278.3047 293.15626 305.9375 320.9375">&#x2022; 50 &#x043a;&#x043d;&#x0438;&#x0433; &#x0412;&#x0435;&#x0442;&#x0445;&#x043e;&#x0433;&#x043e; &#x0417;&#x0430;&#x0432;&#x0435;&#x0442;&#x0430;,</tspan></text>
<text xml:space="preserve" transform="matrix(.25 0 0 .25 13.628719 89.125)" font-size="28" font-family="RobotoStatic"><tspan y="162" x="0 16 32 39 54 70 86 98 105 125 141 157 173 184.72657 200.72657 207.72657 224.72657 239.72657 255.72657 270.57814 283.35939">27 &#x043a;&#x043d;&#x0438;&#x0433; &#x041d;&#x043e;&#x0432;&#x043e;&#x0433;&#x043e; &#x0417;&#x0430;&#x0432;&#x0435;&#x0442;&#x0430;</tspan></text>
<text xml:space="preserve" transform="matrix(.25 0 0 .25 111.13458 89.125)" font-size="28" font-family="RobotoStatic"><tspan y="30" x="0 9 16 34 49 65 81 97 119 126 133 153 169 184 200 216 232 247 254 269 285 300 313 335">&#x2022; &#x041a;&#x0430;&#x043d;&#x043e;&#x043d;&#x044b;: &#x041f;&#x0440;&#x0430;&#x0432;&#x0438;&#x043b;&#x0430; &#x0441;&#x0432;&#x044f;&#x0442;&#x044b;&#x0445;</tspan></text>
<text xml:space="preserve" transform="matrix(.25 0 0 .25 111.13458 89.125)" font-size="28" font-family="RobotoStatic"><tspan y="63" x="0 15 31 47 62 74.42578 90.20703 106.20703 122.20703 138.20703 144.20703 151.20703 168.20703 183.20703 198.20703 214.20703 229.20703 245.20703 260.20704 275.20704 291.20704 305.20704 312.20704">&#x0430;&#x043f;&#x043e;&#x0441;&#x0442;&#x043e;&#x043b;&#x043e;&#x0432;, &#x0412;&#x0441;&#x0435;&#x043b;&#x0435;&#x043d;&#x0441;&#x043a;&#x0438;&#x0445; &#x0438;</tspan></text>
<text xml:space="preserve" transform="matrix(.25 0 0 .25 111.13458 89.125)" font-size="28" font-family="RobotoStatic"><tspan y="96" x="0 16 32 54 68 75 91 107 123 137 153 168 184 200 222 236 243 258 274 289 305 321 337">&#x0438;&#x043d;&#x044b;&#x0445; &#x043f;&#x0440;&#x0438;&#x0437;&#x043d;&#x0430;&#x043d;&#x043d;&#x044b;&#x0445; &#x0441;&#x043e;&#x0431;&#x043e;&#x0440;&#x043e;&#x0432;</tspan></text>
<text xml:space="preserve" transform="matrix(.25 0 0 .25 111.13458 89.125)" font-size="28" font-family="RobotoStatic"><tspan y="129" x="0 9 16 31.6875 47.6875 63.6875 79.6875 94.6875 110.6875 126.6875 141.6875 148.6875 163.6875 179.6875 194.6875 207.6875 229.6875 243.6875 250.6875 266.38673 279.38673 296.38673 312.38673">&#x2022; &#x0422;&#x0432;&#x043e;&#x0440;&#x0435;&#x043d;&#x0438;&#x044f; &#x0441;&#x0432;&#x044f;&#x0442;&#x044b;&#x0445; &#x043e;&#x0442;&#x0446;&#x043e;&#x0432;</tspan></text>
<text xml:space="preserve" transform="matrix(.25 0 0 .25 111.13458 89.125)" font-size="28" font-family="RobotoStatic"><tspan y="162" x="0 16 23 36 51 67 78.90625 93.90625 109.90625 124.90625 140.90625 147.90625 167.90625 182.90625 198.90625 213.90625 229.90625">&#x0438; &#x0443;&#x0447;&#x0438;&#x0442;&#x0435;&#x043b;&#x0435;&#x0439; &#x0426;&#x0435;&#x0440;&#x043a;&#x0432;&#x0438;</tspan></text>
<text xml:space="preserve" transform="matrix(.25 0 0 .25 111.13458 89.125)" font-size="28" font-family="RobotoStatic"><tspan y="195" x="0 9 16 41 57 70 86 101 108 123 139 154 167 189">&#x2022; &#x0416;&#x0438;&#x0442;&#x0438;&#x044f; &#x0441;&#x0432;&#x044f;&#x0442;&#x044b;&#x0445;</tspan></text>
</g>
</svg>
