<!--
Оригинальный файл:
https://ru.m.wikipedia.org/wiki/Файл:Phase_change_-_ru.svg
-->
<svg xmlns="http://www.w3.org/2000/svg" xmlns:xlink="http://www.w3.org/1999/xlink" version="1.1" width="331.97108pt" height="352.204pt" viewBox="0 0 331.97108 352.204">
<defs>
<clipPath id="clip_0">
<path transform="matrix(1,0,0,-1,-47.32554,547.7897)" d="M0 0H419V595H0Z" fill-rule="evenodd"/>
</clipPath>
<clipPath id="clip_1">
<path transform="matrix(.23942857,0,0,.23942857,-47.32554,-48.16803)" d="M144.9888 144.9888H1629.1668V1727.1716H144.9888Z" fill-rule="evenodd"/>
</clipPath>
</defs>
<g clip-path="url(#clip_0)">
<g clip-path="url(#clip_1)">
<text xml:space="preserve" transform="matrix(0 -.72293856 .72293856 0 -607.0479 480.66255)" font-size="16" font-family="NAMU"><tspan y="893.7969" x="305.96876 318.4488 327.8088 336.49684 345.71284 355.15284 364.33686 374.09687 386.41688 395.4409 405.5209 415.28096">&#x0414;&#x0435;&#x0441;&#x0443;&#x0431;&#x043b;&#x0438;&#x043c;&#x0430;&#x0446;&#x0438;&#x044f;</tspan></text>
<text xml:space="preserve" transform="matrix(0 -.72293856 .72293856 0 -607.0479 480.66255)" font-size="13" font-family="NAMU"><tspan y="933.7969" x="254.8125 264.6925 272.1805 279.85054 287.31254 295.24256 305.25257 312.58457 320.77458 328.7046">&#x0421;&#x0443;&#x0431;&#x043b;&#x0438;&#x043c;&#x0430;&#x0446;&#x0438;&#x044f;</tspan></text>
<text xml:space="preserve" transform="matrix(0 -.72293856 .72293856 0 -607.0479 480.66255)" font-size="13" font-family="Unnamed"><tspan y="933.7969" x="335.80256"> </tspan></text>
<text xml:space="preserve" transform="matrix(0 -.72293856 .72293856 0 -607.0479 480.66255)" font-size="13" font-family="Unnamed"><tspan y="933.7969" x="339.4588">(</tspan></text>
<text xml:space="preserve" transform="matrix(0 -.72293856 .72293856 0 -607.0479 480.66255)" font-size="13" font-family="NAMU"><tspan y="933.7969" x="344.16767 351.05769 358.46769 365.01969 370.54469 378.34468 386.27467 393.13868">&#x0432;&#x043e;&#x0437;&#x0433;&#x043e;&#x043d;&#x043a;&#x0430;</tspan></text>
<text xml:space="preserve" transform="matrix(0 -.72293856 .72293856 0 -607.0479 480.66255)" font-size="13" font-family="Unnamed"><tspan y="933.7969" x="400.4707">)</tspan></text>
<path transform="matrix(0,-.72293856,.72293856,0,-607.0479,480.66255)" d="M284.95243 890.7615 294.8282 901.5124 302.51225 901.49459 292.61643 890.7437 302.4624 879.94717 294.77836 879.96499 284.95246 890.7615H284.95243Z"/>
<path transform="matrix(0,-.72293856,.72293856,0,-607.0479,480.66255)" d="M422.5476 930.49 412.67185 919.7391 404.9878 919.7569 414.8836 930.50778 405.03764 941.3043 412.72169 941.2865 422.54759 930.49H422.5476Z"/>
<path transform="matrix(0,-.72293856,.72293856,0,-607.0479,480.66255)" stroke-width="1.23963" stroke-linecap="square" stroke-miterlimit="4" stroke-linejoin="miter" fill="none" stroke="#00f1f1" stroke-opacity=".6073" d="M298.06355 909.75088H407.64054"/>
<text xml:space="preserve" transform="matrix(.6426987 -.33102636 .33102636 .6426987 -592.5804 -85.72241)" font-size="15" font-family="NAMU"><tspan y="895" x="627.125 639.42507 646.5501 654.5002 663.20028 672.2753 681.3654 690.0655 698.01559 706.4756 715.6257 724.62576">&#x041e;&#x0442;&#x0432;&#x0435;&#x0440;&#x0434;&#x0435;&#x0432;&#x0430;&#x043d;&#x0438;&#x0435;</tspan></text>
<text xml:space="preserve" transform="matrix(.6426987 -.33102636 .33102636 .6426987 -592.5804 -85.72241)" font-size="16" font-family="NAMU"><tspan y="935" x="637.40628 649.8863 658.9103 667.9343 676.09439 685.1184 694.39846 704.15847 713.7585">&#x041f;&#x043b;&#x0430;&#x0432;&#x043b;&#x0435;&#x043d;&#x0438;&#x0435;</tspan></text>
<path transform="matrix(.6426987,-.33102636,.33102636,.6426987,-592.5804,-85.72241)" d="M614.95877 889.83779 624.8345 900.5887 632.5185 900.57089 622.6227 889.82 632.4686 879.02346 624.7846 879.04129 614.9587 889.83779H614.95877Z"/>
<path transform="matrix(.6426987,-.33102636,.33102636,.6426987,-592.5804,-85.72241)" d="M742.52548 930.8119 732.6497 920.061 724.9657 920.0788 734.8615 930.82968 725.01559 941.6262 732.6996 941.6084 742.5255 930.8119H742.52548Z"/>
<path transform="matrix(.6426987,-.33102636,.33102636,.6426987,-592.5804,-85.72241)" stroke-width="1.23963" stroke-linecap="square" stroke-miterlimit="4" stroke-linejoin="miter" fill="none" stroke="#00f1f1" stroke-opacity=".6073" d="M623.05068 910.29739H732.6276"/>
<text xml:space="preserve" transform="matrix(.6403366 -.33557294 .33557294 .6403366 -180.00659 -494.44853)" font-size="16" font-family="NAMU"><tspan y="895.5" x="-32.21875 -22.138733 -12.858719 -4.4107058 5.189316 17.669342 27.269364 37.02939 46.62941 55.653429 65.733448 75.49347">&#x0420;&#x0435;&#x043a;&#x043e;&#x043c;&#x0431;&#x0438;&#x043d;&#x0430;&#x0446;&#x0438;&#x044f;</tspan></text>
<text xml:space="preserve" transform="matrix(.6403366 -.33557294 .33557294 .6403366 -180.00659 -494.44853)" font-size="16" font-family="NAMU"><tspan y="935.5" x="-17.5 -4.85997 4.7400515 14.500076 23.780106 31.924118 40.948137 51.028154 60.788179">&#x0418;&#x043e;&#x043d;&#x0438;&#x0437;&#x0430;&#x0446;&#x0438;&#x044f;</tspan></text>
<path transform="matrix(.6403366,-.33557294,.33557294,.6403366,-180.00659,-494.44853)" d="M-53.28545 890.6896-43.40969 901.4405-35.72565 901.42269-45.62146 890.6718-35.77549 879.87527-43.45954 879.89309-53.28545 890.6896Z"/>
<path transform="matrix(.6403366,-.33557294,.33557294,.6403366,-180.00659,-494.44853)" d="M92.88517 930.6151 83.00941 919.8642 75.32536 919.882 85.221179 930.6329 75.375209 941.42947 83.05926 941.4116 92.88517 930.6151Z"/>
<path transform="matrix(.6403366,-.33557294,.33557294,.6403366,-180.00659,-494.44853)" stroke-width="1.23963" stroke-linecap="square" stroke-miterlimit="4" stroke-linejoin="miter" fill="none" stroke="#00f1f1" stroke-opacity=".6073" d="M-24.30427 909.62747H85.27272"/>
<text xml:space="preserve" transform="matrix(.63229867 .3443773 -.34718446 .6374527 340.35093 -466.861)" font-size="14" font-family="NAMU"><tspan y="890.8906" x="125.859378 136.77933 144.6753 153.35527 161.82524 170.2252 178.62517 187.30515 195.20111 202.32709 210.72705 218.14702 226.04299 234.58295 242.98291">&#x041f;&#x0430;&#x0440;&#x043e;&#x043e;&#x0431;&#x0440;&#x0430;&#x0437;&#x043e;&#x0432;&#x0430;&#x043d;&#x0438;&#x0435;</tspan></text>
<text xml:space="preserve" transform="matrix(.63229867 .3443773 -.34718446 .6374527 340.35093 -466.861)" font-size="16.06" font-family="NAMU"><tspan y="931.0469" x="135.57813 146.47362 156.10167 165.8902 175.61441 184.92154 194.54947 203.66411 212.71448 222.82395 232.61248">&#x041a;&#x043e;&#x043d;&#x0434;&#x0435;&#x043d;&#x0441;&#x0430;&#x0446;&#x0438;&#x044f;</tspan></text>
<path transform="matrix(.6348809,.34578369,-.34578369,.6348809,340.35093,-466.861)" d="M112.40674 890.1603 122.2825 900.99887 129.96654 900.98098 120.070728 890.14248 129.91669 879.2579 122.232639 879.27578 112.40672 890.1603H112.40674Z"/>
<path transform="matrix(.6348809,.34578369,-.34578369,.6348809,340.35093,-466.861)" d="M266.2861 930.40176 256.41035 919.5632 248.7263 919.58108 258.6221 930.41958 248.77613 941.30416 256.46018 941.28616 266.28608 930.4016 266.2861 930.40176Z"/>
<path transform="matrix(.6348809,.34578369,-.34578369,.6348809,340.35093,-466.861)" stroke-width="1.24467" stroke-linecap="square" stroke-miterlimit="4" stroke-linejoin="miter" fill="none" stroke="#00f1f1" stroke-opacity=".6073" d="M134.5106 909.59359H244.08759"/>
<path transform="matrix(.72293856,0,0,.72293856,-16.865712,7.303028)" stroke-width="12.5" stroke-linecap="square" stroke-miterlimit="4" stroke-linejoin="miter" fill="none" stroke="#969696" d="M92.88517 438.00004 353.25 302.4195"/>
<path transform="matrix(.72293856,0,0,.72293856,189.13739,643.2434)" stroke-width="12.5" stroke-linecap="square" stroke-miterlimit="4" stroke-linejoin="miter" fill="none" stroke="#969696" d="M-191.56726-713.4104 68.797588-850.91049"/>
<path transform="matrix(.72293856,0,0,.72293856,189.13739,643.2434)" stroke-width="12.5" stroke-linecap="butt" stroke-miterlimit="4" stroke-linejoin="miter" fill="none" stroke="#969696" d="M68.797588-577.7409-191.56726-713.4104"/>
<path transform="matrix(.72293856,0,0,.72293856,189.13739,643.2434)" stroke-width="12.5" stroke-linecap="butt" stroke-miterlimit="4" stroke-linejoin="miter" fill="none" stroke="#969696" d="M-191.31668-712.9879-191.56726-442.1604"/>
<path transform="matrix(.41363973,0,0,.41363973,64.937877,-138.70304)" d="M325.89454 348.52656H515.10757C515.93447 348.52656 516.7534 348.6072 517.5644 348.76853 518.3754 348.9298 519.1629 349.1687 519.9268 349.48515 520.6908 349.80158 521.4165 350.1895 522.10409 350.64894 522.7916 351.1083 523.42776 351.63038 524.01248 352.2151 524.5971 352.79978 525.1192 353.4359 525.5786 354.12345 526.038 354.81098 526.4259 355.5367 526.7424 356.30067 527.0588 357.06465 527.29769 357.85215 527.4591 358.66316 527.6204 359.47416 527.70108 360.29313 527.70108 361.12007V445.33305C527.70108 446.1599 527.62039 446.97886 527.45907 447.78987 527.29769 448.60087 527.0588 449.38838 526.7424 450.1523 526.4259 450.91627 526.038 451.642 525.5786 452.32954 525.1192 453.0171 524.5971 453.65324 524.01248 454.23796 523.42776 454.82264 522.7916 455.3447 522.10409 455.80409 521.4165 456.26347 520.6908 456.6514 519.9268 456.96788 519.1629 457.2843 518.3754 457.5232 517.5644 457.6845 516.7534 457.84584 515.93447 457.9265 515.10757 457.92655H325.89454C325.0676 457.9265 324.24864 457.84584 323.43763 457.6845 322.62663 457.5232 321.83915 457.2843 321.0752 456.96788 320.31126 456.6514 319.58549 456.26347 318.89793 455.80409 318.2104 455.3447 317.57429 454.82264 316.98957 454.23796 316.40486 453.65324 315.88279 453.0171 315.42338 452.32957 314.964 451.64204 314.57606 450.91627 314.2596 450.1523 313.94319 449.38838 313.7043 448.60087 313.543 447.78987 313.38166 446.97886 313.301 446.1599 313.30104 445.33305V361.12007C313.301 360.29313 313.38166 359.47416 313.543 358.66316 313.7043 357.85215 313.94319 357.06465 314.2596 356.30067 314.57606 355.5367 314.964 354.81098 315.42338 354.12345 315.88279 353.4359 316.40486 352.79978 316.98957 352.2151 317.57429 351.63038 318.2104 351.1083 318.89793 350.6489 319.58549 350.1895 320.31126 349.80158 321.0752 349.48515 321.83915 349.1687 322.62663 348.9298 323.43763 348.76853 324.24864 348.6072 325.0676 348.52656 325.89454 348.52656Z" fill="#ffdedd"/>
<path transform="matrix(.41363973,0,0,.41363973,64.937877,-138.70304)" stroke-width="4.06867" stroke-linecap="round" stroke-linejoin="round" fill="none" stroke="#dd8383" d="M325.89454 348.52656H515.10757C515.93447 348.52656 516.7534 348.6072 517.5644 348.76853 518.3754 348.9298 519.1629 349.1687 519.9268 349.48515 520.6908 349.80158 521.4165 350.1895 522.10409 350.64894 522.7916 351.1083 523.42776 351.63038 524.01248 352.2151 524.5971 352.79978 525.1192 353.4359 525.5786 354.12345 526.038 354.81098 526.4259 355.5367 526.7424 356.30067 527.0588 357.06465 527.29769 357.85215 527.4591 358.66316 527.6204 359.47416 527.70108 360.29313 527.70108 361.12007V445.33305C527.70108 446.1599 527.62039 446.97886 527.45907 447.78987 527.29769 448.60087 527.0588 449.38838 526.7424 450.1523 526.4259 450.91627 526.038 451.642 525.5786 452.32954 525.1192 453.0171 524.5971 453.65324 524.01248 454.23796 523.42776 454.82264 522.7916 455.3447 522.10409 455.80409 521.4165 456.26347 520.6908 456.6514 519.9268 456.96788 519.1629 457.2843 518.3754 457.5232 517.5644 457.6845 516.7534 457.84584 515.93447 457.9265 515.10757 457.92655H325.89454C325.0676 457.9265 324.24864 457.84584 323.43763 457.6845 322.62663 457.5232 321.83915 457.2843 321.0752 456.96788 320.31126 456.6514 319.58549 456.26347 318.89793 455.80409 318.2104 455.3447 317.57429 454.82264 316.98957 454.23796 316.40486 453.65324 315.88279 453.0171 315.42338 452.32957 314.964 451.64204 314.57606 450.91627 314.2596 450.1523 313.94319 449.38838 313.7043 448.60087 313.543 447.78987 313.38166 446.97886 313.301 446.1599 313.30104 445.33305V361.12007C313.301 360.29313 313.38166 359.47416 313.543 358.66316 313.7043 357.85215 313.94319 357.06465 314.2596 356.30067 314.57606 355.5367 314.964 354.81098 315.42338 354.12345 315.88279 353.4359 316.40486 352.79978 316.98957 352.2151 317.57429 351.63038 318.2104 351.1083 318.89793 350.6489 319.58549 350.1895 320.31126 349.80158 321.0752 349.48515 321.83915 349.1687 322.62663 348.9298 323.43763 348.76853 324.24864 348.6072 325.0676 348.52656 325.89454 348.52656Z"/>
<text xml:space="preserve" transform="matrix(.72293856 0 0 .72293856 64.937877 -138.70304)" font-size="24.83" font-family="NAMU"><tspan y="239.76563" x="193.57813 212.94412 226.9472 240.9503 253.46372 272.58143">&#x041f;&#x043b;&#x0430;&#x0437;&#x043c;&#x0430;</tspan></text>
<path transform="matrix(.41363973,0,0,.41363973,61.92421,-59.34193)" d="M333.18028 634.09799H522.39328C523.2201 634.09799 524.03909 634.1786 524.85006 634.3399 525.661 634.5012 526.44857 634.74008 527.2125 635.0565 527.9765 635.373 528.7022 635.76089 529.3898 636.2203 530.07736 636.6797 530.7135 637.2018 531.29818 637.78646 531.8829 638.37118 532.4049 639.00729 532.8643 639.6948 533.3237 640.3824 533.7116 641.1081 534.0281 641.8721 534.34457 642.63607 534.58346 643.4235 534.74478 644.23458 534.90609 645.04556 534.9867 645.8645 534.98678 646.69149V730.9044C534.9867 731.7313 534.90609 732.5503 534.74478 733.36129 534.58346 734.17227 534.34457 734.9597 534.0281 735.7237 533.7116 736.4877 533.3237 737.2134 532.8643 737.90097 532.4049 738.5885 531.8829 739.2246 531.29818 739.8093 530.7135 740.394 530.07736 740.916 529.3897 741.3754 528.7022 741.83486 527.9765 742.2228 527.2125 742.53927 526.44857 742.85568 525.6611 743.09457 524.8501 743.2559 524.03909 743.41726 523.2201 743.4979 522.39328 743.4979H333.18028C332.35334 743.4979 331.53437 743.41726 330.72334 743.2558 329.91233 743.0945 329.12486 742.85568 328.3609 742.5392 327.59696 742.2227 326.8712 741.8348 326.18367 741.37539 325.49613 740.916 324.86 740.394 324.2753 739.8093 323.69059 739.2246 323.16853 738.5885 322.70915 737.90097 322.24974 737.2134 321.8618 736.4877 321.54536 735.7237 321.22889 734.9597 320.99 734.1723 320.8287 733.3613 320.6674 732.5503 320.58674 731.7313 320.58677 730.9044V646.69149C320.58674 645.8645 320.6674 645.04556 320.8287 644.23458 320.99 643.4235 321.22889 642.63607 321.54536 641.8721 321.8618 641.1081 322.24974 640.3824 322.7091 639.6948 323.16853 639.00729 323.69059 638.37118 324.2753 637.78646 324.86 637.2018 325.49613 636.6797 326.1837 636.2203 326.87123 635.76089 327.59696 635.373 328.3609 635.0565 329.12486 634.74008 329.91233 634.5012 330.72337 634.3399 331.53437 634.1786 332.35334 634.09799 333.18028 634.09799Z" fill="#bbdcff"/>
<path transform="matrix(.41363973,0,0,.41363973,61.92421,-59.34193)" stroke-width="4.06867" stroke-linecap="round" stroke-linejoin="round" fill="none" stroke="#89b2de" d="M333.18028 634.09799H522.39328C523.2201 634.09799 524.03909 634.1786 524.85006 634.3399 525.661 634.5012 526.44857 634.74008 527.2125 635.0565 527.9765 635.373 528.7022 635.76089 529.3898 636.2203 530.07736 636.6797 530.7135 637.2018 531.29818 637.78646 531.8829 638.37118 532.4049 639.00729 532.8643 639.6948 533.3237 640.3824 533.7116 641.1081 534.0281 641.8721 534.34457 642.63607 534.58346 643.4235 534.74478 644.23458 534.90609 645.04556 534.9867 645.8645 534.98678 646.69149V730.9044C534.9867 731.7313 534.90609 732.5503 534.74478 733.36129 534.58346 734.17227 534.34457 734.9597 534.0281 735.7237 533.7116 736.4877 533.3237 737.2134 532.8643 737.90097 532.4049 738.5885 531.8829 739.2246 531.29818 739.8093 530.7135 740.394 530.07736 740.916 529.3897 741.3754 528.7022 741.83486 527.9765 742.2228 527.2125 742.53927 526.44857 742.85568 525.6611 743.09457 524.8501 743.2559 524.03909 743.41726 523.2201 743.4979 522.39328 743.4979H333.18028C332.35334 743.4979 331.53437 743.41726 330.72334 743.2558 329.91233 743.0945 329.12486 742.85568 328.3609 742.5392 327.59696 742.2227 326.8712 741.8348 326.18367 741.37539 325.49613 740.916 324.86 740.394 324.2753 739.8093 323.69059 739.2246 323.16853 738.5885 322.70915 737.90097 322.24974 737.2134 321.8618 736.4877 321.54536 735.7237 321.22889 734.9597 320.99 734.1723 320.8287 733.3613 320.6674 732.5503 320.58674 731.7313 320.58677 730.9044V646.69149C320.58674 645.8645 320.6674 645.04556 320.8287 644.23458 320.99 643.4235 321.22889 642.63607 321.54536 641.8721 321.8618 641.1081 322.24974 640.3824 322.7091 639.6948 323.16853 639.00729 323.69059 638.37118 324.2753 637.78646 324.86 637.2018 325.49613 636.6797 326.1837 636.2203 326.87123 635.76089 327.59696 635.373 328.3609 635.0565 329.12486 634.74008 329.91233 634.5012 330.72337 634.3399 331.53437 634.1786 332.35334 634.09799 333.18028 634.09799Z"/>
<text xml:space="preserve" transform="matrix(.72293856 0 0 .72293856 61.92421 -59.34193)" font-size="24" font-family="NAMU"><tspan y="400.78126" x="196.15625 221.78818 236.42813 251.21208 263.88404 278.404">&#x0416;&#x0438;&#x0434;&#x043a;&#x043e;&#x0435;</tspan></text>
<path transform="matrix(.41363973,0,0,.41363973,-16.984484,-20.416953)" d="M68.894519 776.95516H258.1075C258.9344 776.95516 259.75337 777.03579 260.56437 777.1971 261.37538 777.3584 262.16285 777.5972 262.9268 777.91366 263.69078 778.2301 264.4165 778.618 265.10404 779.0774 265.7916 779.5368 266.42774 780.05886 267.01246 780.6436 267.59715 781.22836 268.1192 781.86447 268.5786 782.55197 269.038 783.23947 269.42594 783.9652 269.74238 784.7292 270.0588 785.49319 270.2977 786.28067 270.459 787.0917 270.62034 787.9028 270.701 788.72177 270.70103 789.54867V873.7616C270.701 874.58847 270.62034 875.4074 270.45899 876.2184 270.2977 877.02938 270.0588 877.8168 269.74238 878.58078 269.42594 879.34469 269.038 880.07046 268.5786 880.758 268.1192 881.44558 267.59715 882.08169 267.01246 882.6664 266.42774 883.2511 265.7916 883.77316 265.10404 884.2325 264.4165 884.69198 263.69078 885.0799 262.9268 885.3963 262.16285 885.71279 261.37538 885.95169 260.56437 886.11306 259.75337 886.27438 258.9344 886.35507 258.1075 886.3551H68.894519C68.06761 886.35507 67.24866 886.27438 66.437648 886.11306 65.62663 885.9517 64.83914 885.7128 64.07519 885.39639 63.31123 885.07998 62.58548 884.6921 61.897935 884.23269 61.210397 883.77328 60.574274 883.2512 59.989568 882.66659 59.40486 882.0818 58.882806 881.4456 58.4234 880.75808 57.964 880.0705 57.576078 879.3447 57.259634 878.58078 56.94319 877.8168 56.70431 877.02938 56.54299 876.21847 56.38167 875.4074 56.301015 874.58847 56.301019 873.7616V789.54867C56.301015 788.72177 56.381677 787.9028 56.542997 787.0917 56.70431 786.28067 56.94319 785.49319 57.259634 784.7292 57.576074 783.9652 57.963994 783.23947 58.423398 782.55197 58.882799 781.86447 59.40485 781.22836 59.98956 780.6436 60.574266 780.05886 61.21039 779.5368 61.89793 779.0774 62.585474 778.618 63.311223 778.2301 64.07518 777.91366 64.839138 777.5972 65.626628 777.3584 66.43764 777.1971 67.24865 777.03579 68.06761 776.95516 68.894519 776.95516Z" fill="#d8fed7"/>
<path transform="matrix(.41363973,0,0,.41363973,-16.984484,-20.416953)" stroke-width="4.06867" stroke-linecap="round" stroke-linejoin="round" fill="none" stroke="#56c25c" d="M68.894519 776.95516H258.1075C258.9344 776.95516 259.75337 777.03579 260.56437 777.1971 261.37538 777.3584 262.16285 777.5972 262.9268 777.91366 263.69078 778.2301 264.4165 778.618 265.10404 779.0774 265.7916 779.5368 266.42774 780.05886 267.01246 780.6436 267.59715 781.22836 268.1192 781.86447 268.5786 782.55197 269.038 783.23947 269.42594 783.9652 269.74238 784.7292 270.0588 785.49319 270.2977 786.28067 270.459 787.0917 270.62034 787.9028 270.701 788.72177 270.70103 789.54867V873.7616C270.701 874.58847 270.62034 875.4074 270.45899 876.2184 270.2977 877.02938 270.0588 877.8168 269.74238 878.58078 269.42594 879.34469 269.038 880.07046 268.5786 880.758 268.1192 881.44558 267.59715 882.08169 267.01246 882.6664 266.42774 883.2511 265.7916 883.77316 265.10404 884.2325 264.4165 884.69198 263.69078 885.0799 262.9268 885.3963 262.16285 885.71279 261.37538 885.95169 260.56437 886.11306 259.75337 886.27438 258.9344 886.35507 258.1075 886.3551H68.894519C68.06761 886.35507 67.24866 886.27438 66.437648 886.11306 65.62663 885.9517 64.83914 885.7128 64.07519 885.39639 63.31123 885.07998 62.58548 884.6921 61.897935 884.23269 61.210397 883.77328 60.574274 883.2512 59.989568 882.66659 59.40486 882.0818 58.882806 881.4456 58.4234 880.75808 57.964 880.0705 57.576078 879.3447 57.259634 878.58078 56.94319 877.8168 56.70431 877.02938 56.54299 876.21847 56.38167 875.4074 56.301015 874.58847 56.301019 873.7616V789.54867C56.301015 788.72177 56.381677 787.9028 56.542997 787.0917 56.70431 786.28067 56.94319 785.49319 57.259634 784.7292 57.576074 783.9652 57.963994 783.23947 58.423398 782.55197 58.882799 781.86447 59.40485 781.22836 59.98956 780.6436 60.574266 780.05886 61.21039 779.5368 61.89793 779.0774 62.585474 778.618 63.311223 778.2301 64.07518 777.91366 64.839138 777.5972 65.626628 777.3584 66.43764 777.1971 67.24865 777.03579 68.06761 776.95516 68.894519 776.95516Z"/>
<text xml:space="preserve" transform="matrix(.72293856 0 0 .72293856 -16.984484 -20.416953)" font-size="24" font-family="NAMU"><tspan y="485.04689" x="44.875 58.07495 70.79491 84.71486 99.23482 113.77876 128.29872">&#x0422;&#x0432;&#x0451;&#x0440;&#x0434;&#x043e;&#x0435;</tspan></text>
<path transform="matrix(.72293856,0,0,.72293856,-41.3474,7.303047)" d="M473.64607 28.749943C471.3412 41.696184 469.6401 58.990808 462.86244 73.75855 467.53697 73.201938 469.67433 69.1677 471.45707 65.25059V437.5H475.8811V65.332187C477.6633 69.22351 479.8106 73.20578 484.4527 73.75854 477.675 58.99079 475.95094 41.696168 473.64604 28.749928L473.64607 28.749943Z"/>
<text xml:space="preserve" transform="matrix(0 -.72293856 .72293856 0 -41.3474 7.303047)" font-size="24" font-family="NAMU"><tspan y="502.67189" x="-348.8125 -330.40455 -315.7646 -304.8446 -291.30867 -277.5327 -264.93275 -250.29279 -235.65283">&#x042d;&#x043d;&#x0442;&#x0430;&#x043b;&#x044c;&#x043f;&#x0438;&#x044f;</tspan></text>
<text xml:space="preserve" transform="matrix(0 -.72293856 .72293856 0 -41.3474 7.303047)" font-size="24" font-family="Unnamed"><tspan y="502.67189" x="-222.54889"> </tspan></text>
<text xml:space="preserve" transform="matrix(0 -.72293856 .72293856 0 -41.3474 7.303047)" font-size="24" font-family="NAMU"><tspan y="502.67189" x="-215.79888 -202.28691 -187.88697 -174.855 -163.93503 -150.01508 -131.29514">&#x0441;&#x0438;&#x0441;&#x0442;&#x0435;&#x043c;&#x044b;</tspan></text>
<path transform="matrix(.41363973,0,0,.41363973,-16.984484,-98.331249)" d="M68.894519 491.24085H258.1075C258.9344 491.24085 259.75337 491.3215 260.56437 491.48283 261.37538 491.64414 262.16285 491.883 262.9268 492.19944 263.69078 492.51588 264.4165 492.90379 265.10404 493.3632 265.7916 493.8226 266.42774 494.34468 267.01246 494.92939 267.59715 495.51408 268.1192 496.15019 268.5786 496.83775 269.038 497.52528 269.42594 498.251 269.74238 499.01496 270.0588 499.7789 270.2977 500.5664 270.459 501.3774 270.62034 502.18846 270.701 503.00743 270.70103 503.83436V588.0473C270.701 588.87417 270.62034 589.6931 270.45899 590.5041 270.2977 591.3151 270.0588 592.1026 269.74238 592.8666 269.42594 593.63058 269.038 594.35629 268.5786 595.0438 268.1192 595.7314 267.59715 596.3675 267.01246 596.9523 266.42774 597.537 265.7916 598.059 265.10404 598.51846 264.4165 598.9778 263.69078 599.36569 262.9268 599.6821 262.16285 599.9986 261.37538 600.2375 260.56437 600.3988 259.75337 600.5601 258.9344 600.6408 258.1075 600.6408H68.894519C68.06761 600.6408 67.24866 600.5601 66.437648 600.3988 65.62663 600.2375 64.83914 599.9986 64.07519 599.6821 63.31123 599.36569 62.58548 598.9778 61.897935 598.51846 61.210397 598.059 60.574274 597.537 59.989568 596.9523 59.40486 596.3675 58.882806 595.7314 58.4234 595.0438 57.964 594.35629 57.576078 593.63058 57.259634 592.8666 56.94319 592.1026 56.70431 591.3151 56.54299 590.5041 56.38167 589.6931 56.301015 588.87417 56.301019 588.0473V503.83436C56.301015 503.00743 56.381677 502.18846 56.542997 501.37745 56.70431 500.56645 56.94319 499.77894 57.259634 499.01499 57.576074 498.25105 57.963994 497.52528 58.423398 496.83775 58.882799 496.15019 59.40485 495.51408 59.98956 494.92939 60.574266 494.34468 61.21039 493.8226 61.89793 493.3632 62.585474 492.90379 63.311223 492.51588 64.07518 492.19944 64.839138 491.883 65.626628 491.64414 66.43764 491.48283 67.24865 491.3215 68.06761 491.24085 68.894519 491.24085Z" fill="#ffffb6"/>
<path transform="matrix(.41363973,0,0,.41363973,-16.984484,-98.331249)" stroke-width="4.06867" stroke-linecap="round" stroke-linejoin="round" fill="none" stroke="#e8ed4f" d="M68.894519 491.24085H258.1075C258.9344 491.24085 259.75337 491.3215 260.56437 491.48283 261.37538 491.64414 262.16285 491.883 262.9268 492.19944 263.69078 492.51588 264.4165 492.90379 265.10404 493.3632 265.7916 493.8226 266.42774 494.34468 267.01246 494.92939 267.59715 495.51408 268.1192 496.15019 268.5786 496.83775 269.038 497.52528 269.42594 498.251 269.74238 499.01496 270.0588 499.7789 270.2977 500.5664 270.459 501.3774 270.62034 502.18846 270.701 503.00743 270.70103 503.83436V588.0473C270.701 588.87417 270.62034 589.6931 270.45899 590.5041 270.2977 591.3151 270.0588 592.1026 269.74238 592.8666 269.42594 593.63058 269.038 594.35629 268.5786 595.0438 268.1192 595.7314 267.59715 596.3675 267.01246 596.9523 266.42774 597.537 265.7916 598.059 265.10404 598.51846 264.4165 598.9778 263.69078 599.36569 262.9268 599.6821 262.16285 599.9986 261.37538 600.2375 260.56437 600.3988 259.75337 600.5601 258.9344 600.6408 258.1075 600.6408H68.894519C68.06761 600.6408 67.24866 600.5601 66.437648 600.3988 65.62663 600.2375 64.83914 599.9986 64.07519 599.6821 63.31123 599.36569 62.58548 598.9778 61.897935 598.51846 61.210397 598.059 60.574274 597.537 59.989568 596.9523 59.40486 596.3675 58.882806 595.7314 58.4234 595.0438 57.964 594.35629 57.576078 593.63058 57.259634 592.8666 56.94319 592.1026 56.70431 591.3151 56.54299 590.5041 56.38167 589.6931 56.301015 588.87417 56.301019 588.0473V503.83436C56.301015 503.00743 56.381677 502.18846 56.542997 501.37745 56.70431 500.56645 56.94319 499.77894 57.259634 499.01499 57.576074 498.25105 57.963994 497.52528 58.423398 496.83775 58.882799 496.15019 59.40485 495.51408 59.98956 494.92939 60.574266 494.34468 61.21039 493.8226 61.89793 493.3632 62.585474 492.90379 63.311223 492.51588 64.07518 492.19944 64.839138 491.883 65.626628 491.64414 66.43764 491.48283 67.24865 491.3215 68.06761 491.24085 68.894519 491.24085Z"/>
<text xml:space="preserve" transform="matrix(.72293856 0 0 .72293856 -16.984484 -98.331249)" font-size="17.16" font-family="NAMU"><tspan y="317.54689" x="35.84375 42.276674 51.952867 60.68547 71.065097 81.35892 91.65274 102.2897 111.9659 120.6127 130.90648 141.2861">&#x0413;&#x0430;&#x0437;&#x043e;&#x043e;&#x0431;&#x0440;&#x0430;&#x0437;&#x043d;&#x043e;&#x0435;</tspan></text>
</g>
</g>
</svg>
