<svg font-family="sans-serif" xmlns="http://www.w3.org/2000/svg" xmlns:xlink="http://www.w3.org/1999/xlink" version="1.1" width="300pt" height="270pt" viewBox="0 0 300 270"><g><path d="M134.25 105V227.25H165.75V105" fill="#ffffff"/><path stroke-width="1.5" stroke-linecap="butt" stroke-miterlimit="4" stroke-linejoin="miter" fill="none" stroke="#000000" d="M134.25 105V227.25H165.75V105"/><path transform="matrix(1,-.57735,.57735,1,0,0)" d="M-13.182 125.862V231.733L14.099 231.734V125.863" fill="#ffffff"/><path transform="matrix(1,-.57735,.57735,1,0,0)" stroke-width="1.299038" stroke-linecap="butt" stroke-miterlimit="4" stroke-linejoin="miter" fill="none" stroke="#000000" d="M-13.182 125.862V231.733L14.099 231.734V125.863"/><path transform="matrix(1,.57735,-.57735,1,0,0)" d="M210.901-4.041V101.83L238.182 101.829V-4.042" fill="#ffffff"/><path transform="matrix(1,.57735,-.57735,1,0,0)" stroke-width="1.299038" stroke-linecap="butt" stroke-miterlimit="4" stroke-linejoin="miter" fill="none" stroke="#000000" d="M210.901-4.041V101.83L238.182 101.829V-4.042"/><path d="M149.25 67.5C128.691 67.91 112.297 84.805 112.5 105.367 112.707 125.93 129.438 142.492 150 142.492 170.562 142.492 187.293 125.93 187.5 105.367 187.703 84.805 171.309 67.91 150.75 67.5ZM149.25 190.5C128.691 190.91 112.297 207.805 112.5 228.367 112.707 248.93 129.438 265.492 150 265.492 170.562 265.492 187.293 248.93 187.5 228.367 187.703 207.805 171.309 190.91 150.75 190.5ZM149.25 190.5" fill="#ffffff"/><path stroke-width="1.5" stroke-linecap="butt" stroke-miterlimit="4" stroke-linejoin="miter" fill="none" stroke="#000000" d="M149.25 67.5C128.691 67.91 112.297 84.805 112.5 105.367 112.707 125.93 129.438 142.492 150 142.492 170.562 142.492 187.293 125.93 187.5 105.367 187.703 84.805 171.309 67.91 150.75 67.5ZM149.25 190.5C128.691 190.91 112.297 207.805 112.5 228.367 112.707 248.93 129.438 265.492 150 265.492 170.562 265.492 187.293 248.93 187.5 228.367 187.703 207.805 171.309 190.91 150.75 190.5ZM149.25 190.5"/><path transform="matrix(-.57735,1,-1,-.57735,0,0)" d="M.158-157.966 .157-52.095H27.438L27.439-157.967" fill="#ffffff"/><path transform="matrix(-.57735,1,-1,-.57735,0,0)" stroke-width="1.299038" stroke-linecap="butt" stroke-miterlimit="4" stroke-linejoin="miter" fill="none" stroke="#000000" d="M.158-157.966 .157-52.095H27.438L27.439-157.967"/><path transform="matrix(0,1,-1,0,0,0)" d="M12.375-170.598V-48.348H43.875V-170.598" fill="#ffffff"/><path transform="matrix(0,1,-1,0,0,0)" stroke-width="1.5" stroke-linecap="butt" stroke-miterlimit="4" stroke-linejoin="miter" fill="none" stroke="#000000" d="M12.375-170.598V-48.348H43.875V-170.598"/><path transform="matrix(-1,.57735,-.57735,-1,0,0)" d="M-14.097-161.541V-55.67H13.184V-161.541" fill="#ffffff"/><path transform="matrix(-1,.57735,-.57735,-1,0,0)" stroke-width="1.299038" stroke-linecap="butt" stroke-miterlimit="4" stroke-linejoin="miter" fill="none" stroke="#000000" d="M-14.097-161.541V-55.67H13.184V-161.541"/><path transform="matrix(-.57735,1,-1,-.57735,0,0)" d="M13.149-190.443C-4.656-190.085-18.855-175.458-18.674-157.648-18.498-139.84-4.01-125.497 13.798-125.497 31.606-125.498 46.095-139.84 46.271-157.648 46.451-175.455 32.254-190.086 14.447-190.442ZM13.15-83.92C-4.657-83.565-18.854-68.935-18.675-51.128-18.499-33.32-4.011-18.977 13.799-18.975 31.607-18.975 46.095-33.32 46.272-51.125 46.45-68.935 32.253-83.567 14.448-83.919ZM13.15-83.92" fill="#ffffff"/><path transform="matrix(-.57735,1,-1,-.57735,0,0)" stroke-width="1.299038" stroke-linecap="butt" stroke-miterlimit="4" stroke-linejoin="miter" fill="none" stroke="#000000" d="M13.149-190.443C-4.656-190.085-18.855-175.458-18.674-157.648-18.498-139.84-4.01-125.497 13.798-125.497 31.606-125.498 46.095-139.84 46.271-157.648 46.451-175.455 32.254-190.086 14.447-190.442ZM13.15-83.92C-4.657-83.565-18.854-68.935-18.675-51.128-18.499-33.32-4.011-18.977 13.799-18.975 31.607-18.975 46.095-33.32 46.272-51.125 46.45-68.935 32.253-83.567 14.448-83.919ZM13.15-83.92"/><path transform="matrix(-.57735,-1,1,-.57735,0,0)" d="M-157.342 67.033V172.905H-130.061V67.034" fill="#ffffff"/><path transform="matrix(-.57735,-1,1,-.57735,0,0)" stroke-width="1.299038" stroke-linecap="butt" stroke-miterlimit="4" stroke-linejoin="miter" fill="none" stroke="#000000" d="M-157.342 67.033V172.905H-130.061V67.034"/><path transform="matrix(-1,-.57735,.57735,-1,0,0)" d="M-238.184-31.637V74.234H-210.903V-31.638" fill="#ffffff"/><path transform="matrix(-1,-.57735,.57735,-1,0,0)" stroke-width="1.299038" stroke-linecap="butt" stroke-miterlimit="4" stroke-linejoin="miter" fill="none" stroke="#000000" d="M-238.184-31.637V74.234H-210.903V-31.638"/><path transform="matrix(0,-1,1,0,0,0)" d="M-43.875 129.402V251.652H-12.375V129.402" fill="#ffffff"/><path transform="matrix(0,-1,1,0,0,0)" stroke-width="1.5" stroke-linecap="butt" stroke-miterlimit="4" stroke-linejoin="miter" fill="none" stroke="#000000" d="M-43.875 129.402V251.652H-12.375V129.402"/><path transform="matrix(-.57735,-1,1,-.57735,0,0)" d="M-144.35 34.558C-162.157 34.914-176.355 49.545-176.175 67.352-175.999 85.16-161.51 99.502-143.702 99.503-125.893 99.503-111.406 85.16-111.229 67.352-111.049 49.542-125.248 34.915-143.053 34.557ZM-144.351 141.081C-162.157 141.433-176.354 156.065-176.176 173.875-175.999 191.68-161.511 206.025-143.703 206.025-125.893 206.023-111.405 191.68-111.229 173.872-111.05 156.065-125.247 141.435-143.054 141.08ZM-144.351 141.081" fill="#ffffff"/><path transform="matrix(-.57735,-1,1,-.57735,0,0)" stroke-width="1.299038" stroke-linecap="butt" stroke-miterlimit="4" stroke-linejoin="miter" fill="none" stroke="#000000" d="M-144.35 34.558C-162.157 34.914-176.355 49.545-176.175 67.352-175.999 85.16-161.51 99.502-143.702 99.503-125.893 99.503-111.406 85.16-111.229 67.352-111.049 49.542-125.248 34.915-143.053 34.557ZM-144.351 141.081C-162.157 141.433-176.354 156.065-176.176 173.875-175.999 191.68-161.511 206.025-143.703 206.025-125.893 206.023-111.405 191.68-111.229 173.872-111.05 156.065-125.247 141.435-143.054 141.08ZM-144.351 141.081"/></g>
<text style="font-size:190%" x="124.5" y="115">Бог</text>
<text style="font-size:70%" x="28.5" y="46.5">Отец</text>
<text style="font-size:70%" x="244" y="46.5">Сын</text>
<text style="font-size:70%" x="119.9" y="232">Святой Дух</text>
<text style="font-size:60%" transform="rotate(30)" x="113" y="19">это</text>
<text style="font-size:60%" transform="rotate(-30)" x="131" y="169">это</text>
<text style="font-size:60%" x="142.1" y="170">это</text>
<text style="font-size:60%" x="135" y="30">это не</text>
<text style="font-size:60%" transform="rotate(60)" x="150" y="3">это не</text>
<text style="font-size:60%" transform="rotate(-60)" x="-30" y="262">это не</text></svg>
