<?xml version="1.0" encoding="UTF-8"?>
<svg xmlns="http://www.w3.org/2000/svg" xmlns:xlink="http://www.w3.org/1999/xlink" width="15px" height="15px" viewBox="0 0 15 15" version="1.1">
<g id="surface1">
<path style=" stroke:none;fill-rule:nonzero;fill:rgb(13.72549%,12.156863%,12.54902%);fill-opacity:1;" d="M 14.5 3.214844 C 14.5 3.261719 14.484375 3.308594 14.453125 3.347656 C 14.421875 3.390625 14.386719 3.410156 14.351562 3.410156 C 14.042969 3.4375 13.792969 3.539062 13.597656 3.707031 C 13.402344 3.875 13.203125 4.199219 12.992188 4.675781 L 9.816406 11.832031 C 9.792969 11.898438 9.734375 11.933594 9.640625 11.933594 C 9.566406 11.933594 9.5 11.894531 9.464844 11.832031 L 7.683594 8.113281 L 5.632812 11.832031 C 5.597656 11.894531 5.53125 11.933594 5.460938 11.933594 C 5.367188 11.933594 5.308594 11.898438 5.277344 11.832031 L 2.15625 4.675781 C 1.960938 4.226562 1.757812 3.914062 1.539062 3.738281 C 1.324219 3.5625 1.027344 3.453125 0.636719 3.410156 C 0.605469 3.410156 0.574219 3.390625 0.546875 3.355469 C 0.515625 3.324219 0.5 3.28125 0.5 3.238281 C 0.5 3.125 0.53125 3.066406 0.601562 3.066406 C 0.878906 3.066406 1.171875 3.078125 1.472656 3.105469 C 1.753906 3.128906 2.023438 3.140625 2.269531 3.140625 C 2.523438 3.140625 2.824219 3.128906 3.167969 3.101562 C 3.488281 3.078125 3.808594 3.066406 4.128906 3.066406 C 4.195312 3.066406 4.226562 3.121094 4.226562 3.238281 C 4.226562 3.351562 4.207031 3.40625 4.164062 3.40625 C 3.886719 3.425781 3.667969 3.5 3.507812 3.621094 C 3.347656 3.742188 3.269531 3.898438 3.269531 4.097656 C 3.269531 4.195312 3.300781 4.320312 3.367188 4.472656 L 5.914062 10.3125 L 7.410156 7.53125 L 6.042969 4.671875 C 5.796875 4.160156 5.597656 3.828125 5.4375 3.679688 C 5.28125 3.53125 5.042969 3.441406 4.722656 3.40625 C 4.691406 3.40625 4.664062 3.390625 4.636719 3.355469 C 4.609375 3.320312 4.597656 3.277344 4.597656 3.234375 C 4.597656 3.121094 4.625 3.066406 4.683594 3.066406 C 4.960938 3.066406 5.21875 3.078125 5.449219 3.101562 C 5.675781 3.128906 5.914062 3.140625 6.167969 3.140625 C 6.417969 3.140625 6.679688 3.125 6.957031 3.101562 C 7.238281 3.074219 7.523438 3.0625 7.804688 3.0625 C 7.871094 3.0625 7.90625 3.121094 7.90625 3.234375 C 7.90625 3.347656 7.882812 3.40625 7.84375 3.40625 C 7.285156 3.441406 7.007812 3.601562 7.007812 3.882812 C 7.007812 4.007812 7.074219 4.203125 7.199219 4.464844 L 8.105469 6.296875 L 9.003906 4.625 C 9.128906 4.386719 9.191406 4.183594 9.191406 4.023438 C 9.191406 3.636719 8.910156 3.433594 8.355469 3.410156 C 8.304688 3.410156 8.28125 3.351562 8.28125 3.234375 C 8.28125 3.195312 8.292969 3.15625 8.316406 3.121094 C 8.34375 3.082031 8.367188 3.066406 8.394531 3.066406 C 8.59375 3.066406 8.839844 3.078125 9.128906 3.101562 C 9.40625 3.128906 9.636719 3.140625 9.8125 3.140625 C 9.941406 3.140625 10.132812 3.128906 10.378906 3.109375 C 10.695312 3.082031 10.960938 3.066406 11.171875 3.066406 C 11.222656 3.066406 11.246094 3.113281 11.246094 3.210938 C 11.246094 3.34375 11.199219 3.410156 11.109375 3.410156 C 10.785156 3.441406 10.523438 3.53125 10.328125 3.675781 C 10.132812 3.824219 9.886719 4.15625 9.589844 4.671875 L 8.394531 6.886719 L 10.011719 10.1875 L 12.410156 4.621094 C 12.492188 4.417969 12.535156 4.230469 12.535156 4.058594 C 12.535156 3.648438 12.253906 3.433594 11.699219 3.40625 C 11.648438 3.40625 11.625 3.347656 11.625 3.234375 C 11.625 3.121094 11.660156 3.066406 11.734375 3.066406 C 11.9375 3.066406 12.179688 3.078125 12.457031 3.101562 C 12.714844 3.125 12.929688 3.140625 13.105469 3.140625 C 13.289062 3.140625 13.5 3.125 13.742188 3.101562 C 13.988281 3.078125 14.214844 3.0625 14.414062 3.0625 C 14.472656 3.0625 14.5 3.113281 14.5 3.210938 Z M 14.5 3.214844 "/>
</g>
</svg>
