<!-- 
Создано с помощью Morfana
http://morfana.ru
https://github.com/kityan/morfana
-->
<svg xmlns="http://www.w3.org/2000/svg" xmlns:xlink="http://www.w3.org/1999/xlink" width="91.602" height="40.01" viewBox="0 0 68.702 30.008"><clipPath id="a"><path transform="matrix(1 0 0 -1 -30.485 172.149)" d="M0 0h147v209H0z" fill-rule="evenodd"/></clipPath><g clip-path="url(#a)"><clipPath id="b"><path transform="matrix(.23838 0 0 .23838 -30.485 -36.851)" d="M116.667 116.667h381.25v637.5h-381.25z" fill-rule="evenodd"/></clipPath><g clip-path="url(#b)"><symbol id="c"><path d="M.558.672.315.116A.215.215 0 0 0 .262.033C.239.011.206 0 .162 0 .131 0 .106 0 .089.002v.09A.96.96 0 0 1 .156.09C.175.09.189.095.2.105c.011.01.02.024.028.041l.015.035L0 .672h.111L.29.288l.168.384h.1z"/></symbol><symbol id="d"><path d="M.263.495A.245.245 0 0 0 .476.123.254.254 0 0 0 .256 0a.25.25 0 0 0-.222.127A.271.271 0 0 0 0 .263v.192c0 .063.016.11.047.141a.224.224 0 0 0 .135.059l.179.023c.017.002.025.01.025.025v.012h.096V.691A.087.087 0 0 0 .456.625.1.1 0 0 0 .397.597L.191.57A.152.152 0 0 1 .108.539C.091.524.082.499.082.466v-.07a.213.213 0 0 0 .181.099M.253.088a.156.156 0 0 1 .138.08.163.163 0 0 1 .021.082c0 .03-.007.057-.021.082A.151.151 0 0 1 .333.39a.15.15 0 0 1-.08.022A.157.157 0 0 1 .171.39.151.151 0 0 1 .113.332.163.163 0 0 1 .092.25.163.163 0 0 1 .171.109.163.163 0 0 1 .253.088z"/></symbol><symbol id="e"><path d="M.45.5V0H.355v.308l-.26-.22V0H0v.5h.095V.198l.26.22V.5H.45z"/></symbol><symbol id="f"><path d="M.45.5V0H.355v.308l-.26-.22V0H0v.5h.095V.198l.26.22V.5H.45M.23.549A.195.195 0 0 0 .102.59.153.153 0 0 0 .046.7h.082A.09.09 0 0 1 .16.64.11.11 0 0 1 .23.619.11.11 0 0 1 .3.64.09.09 0 0 1 .332.7h.082A.153.153 0 0 0 .358.59.195.195 0 0 0 .23.549z"/></symbol><symbol id="g"><path d="M0 .26a.252.252 0 0 0 .131.225.266.266 0 0 0 .284-.014.222.222 0 0 0 .088-.126H.399a.133.133 0 0 1-.055.063.15.15 0 0 1-.083.024.156.156 0 0 1-.142-.085A.18.18 0 0 1 .098.26c0-.032.007-.061.021-.088A.162.162 0 0 1 .177.11.161.161 0 0 1 .261.088c.03 0 .058.008.083.023a.138.138 0 0 1 .055.064h.104A.226.226 0 0 0 .415.048.273.273 0 0 0 .131.034.26.26 0 0 0 0 .26z"/></symbol><symbol id="h"><path d="M.445.41H.27V0H.175v.41H0V.5h.445V.41z"/></symbol><symbol id="i"><path d="M.346.255C.396.23.42.192.42.141A.13.13 0 0 0 .375.039.183.183 0 0 0 .251 0H0v.5h.251A.17.17 0 0 0 .369.461.122.122 0 0 0 .413.364.124.124 0 0 0 .396.3a.114.114 0 0 0-.05-.045M.24.292c.025 0 .043.006.056.017.013.011.019.028.019.05C.315.399.29.42.24.42H.093V.292H.24M.241.08c.027 0 .047.006.06.017a.064.064 0 0 1 .021.051c0 .02-.007.036-.021.047C.288.206.268.212.241.212H.093V.08h.148z"/></symbol><use xlink:href="#c" transform="matrix(11.91892 0 0 -11.91892 3.345 23.552)"/><use xlink:href="#d" transform="matrix(11.91892 0 0 -11.91892 10.806 21.62)"/><use xlink:href="#e" transform="matrix(11.91892 0 0 -11.91892 18.255 21.502)"/><use xlink:href="#f" transform="matrix(11.91892 0 0 -11.91892 25.526 21.502)"/><use xlink:href="#g" transform="matrix(11.91892 0 0 -11.91892 32.141 21.62)"/><use xlink:href="#h" transform="matrix(11.91892 0 0 -11.91892 38.375 21.502)"/><use xlink:href="#i" transform="matrix(11.91892 0 0 -11.91892 44.81 21.502)"/><symbol id="j"><path d="M.266 0a.26.26 0 0 0-.231.391.266.266 0 0 0 .231.129.26.26 0 0 0 .133-.035A.252.252 0 0 0 .53.26.257.257 0 0 0 .266 0m0 .088c.03 0 .059.007.084.022a.167.167 0 0 1 .06.062.18.18 0 0 1 .022.088.174.174 0 0 1-.082.149A.166.166 0 0 1 .098.26.18.18 0 0 1 .12.172.167.167 0 0 1 .18.11.172.172 0 0 1 .266.088z"/></symbol><use xlink:href="#j" transform="matrix(11.91892 0 0 -11.91892 55.184 21.62)"/></g><clipPath id="k"><path transform="matrix(.23838 0 0 .23838 -30.485 -36.851)" d="M344.792 185.417h59.375v84.375h-59.375z" fill-rule="evenodd"/></clipPath><g clip-path="url(#k)"><path stroke-width="1.117395" fill="none" stroke="#000000" d="M52.823 8.465h11.92v17.879h-11.92z"/></g><clipPath id="l"><path transform="matrix(.23838 0 0 .23838 -30.485 -36.851)" d="M257.292 141.667h84.375v62.5h-84.375z" fill-rule="evenodd"/></clipPath><g clip-path="url(#l)"><path stroke-width="1.117395" fill="none" stroke="#000000" d="m32.338 10.328 8.566-5.96 8.567 5.96"/></g><clipPath id="m"><path transform="matrix(.23838 0 0 .23838 -30.485 -36.851)" d="M141.667 141.667h115.625v62.5H141.667z" fill-rule="evenodd"/></clipPath><g clip-path="url(#m)"><path stroke-width="1.117395" fill="none" stroke="#000000" d="M4.775 10.328c7.698-7.45 16.885-7.45 24.583 0"/></g></g></svg>
